<svg id="icon-401" xmlns="http://www.w3.org/2000/svg" width="240" height="240" viewBox="0 0 240 240">
  <defs>
    <style>
      .cls-1 {
        fill: #dae3ed;
      }

      .cls-1, .cls-2, .cls-3, .cls-4, .cls-5, .cls-6 {
        fill-rule: evenodd;
      }

      .cls-2 {
        fill: #91c024;
      }

      .cls-3 {
        fill: #004ea1;
      }

      .cls-4 {
        fill: #fff;
      }

      .cls-5 {
        fill: #c11d1d;
      }

      .cls-6 {
        fill: #848585;
      }
    </style>
  </defs>
  <g id="icon-bg-abstract">
    <path id="icon-bg-abstract-2" data-name="icon-bg-abstract" class="cls-1" d="M224,240H176a16,16,0,0,1-16-16V176a16,16,0,0,1,16-16h48a16,16,0,0,1,16,16v48A16,16,0,0,1,224,240Zm8-64a8,8,0,0,0-8-8H176a8,8,0,0,0-8,8v48a8,8,0,0,0,8,8h48a8,8,0,0,0,8-8V176ZM194,96h8a8,8,0,0,1,8,8v8a8,8,0,0,1-8,8h-8a8,8,0,0,1-8-8v-8A8,8,0,0,1,194,96ZM60,100a8,8,0,0,1-8,8H44a8,8,0,0,1-8-8V92a8,8,0,0,1,8-8h8a8,8,0,0,1,8,8v8Zm2,116a8,8,0,0,1,8,8v8a8,8,0,0,1-8,8H54a8,8,0,0,1-8-8v-8a8,8,0,0,1,8-8h8Zm94-58H92a16,16,0,0,1-16-16V78A16,16,0,0,1,92,62h64a16,16,0,0,1,16,16v64A16,16,0,0,1,156,158ZM32,48H16A16,16,0,0,1,0,32V16A16,16,0,0,1,16,0H32A16,16,0,0,1,48,16V32A16,16,0,0,1,32,48Zm146-3h8a8,8,0,0,1,8,8v8a8,8,0,0,1-8,8h-8a8,8,0,0,1-8-8V53A8,8,0,0,1,178,45Z"/>
    <path id="icon-bg-abstract_copy_2" data-name="icon-bg-abstract copy 2" class="cls-1" d="M92,120a16,16,0,0,1,16,16v32a16,16,0,0,1-16,16H60a16,16,0,0,1-16-16V136a16,16,0,0,1,16-16H92ZM52,136v32a8,8,0,0,0,8,8H92a8,8,0,0,0,8-8V136a8,8,0,0,0-8-8H60A8,8,0,0,0,52,136Z"/>
    <path id="icon-bg-abstract_copy" data-name="icon-bg-abstract copy" class="cls-1" d="M160,94a16,16,0,0,1-16-16V46a16,16,0,0,1,16-16h32a16,16,0,0,1,16,16V78a16,16,0,0,1-16,16H160Zm40-16V46a8,8,0,0,0-8-8H160a8,8,0,0,0-8,8V78a8,8,0,0,0,8,8h32A8,8,0,0,0,200,78Z"/>
  </g>
  <g id="sparkles_edited" data-name="sparkles edited">
    <path id="green" class="cls-2" d="M225.111,65.642h0l-28.284.012h0a2,2,0,1,1,0-4h0l28.285-.012h0A2,2,0,0,1,225.111,65.642ZM189.044,54.465a2,2,0,0,1,0-2.828l21.2-21.222a2,2,0,1,1,2.829,2.827l-21.2,21.222A2,2,0,0,1,189.044,54.465Zm-10.609-6.359a1.991,1.991,0,0,1-.586-1.414h0l-0.012-28.284h0a2,2,0,1,1,4,0h0l0.012,28.284h0A2,2,0,0,1,178.435,48.105ZM16,158a6,6,0,1,1-6,6A6,6,0,0,1,16,158Zm166,46a2,2,0,1,1-2,2A2,2,0,0,1,182,204Z"/>
    <path id="blue" class="cls-3" d="M229,143h-2v2a2,2,0,0,1-4,0v-2h-2a2,2,0,0,1,0-4h2v-2a2,2,0,0,1,4,0v2h2A2,2,0,0,1,229,143ZM40,191H38v2a2,2,0,0,1-4,0v-2H32a2,2,0,1,1,0-4h2v-2a2,2,0,0,1,4,0v2h2A2,2,0,0,1,40,191ZM8,94V92H24v2H8Zm0-6H24v2H8V88Zm0-4H24v2H8V84Zm73,87a2,2,0,1,1-2,2A2,2,0,0,1,81,171Z"/>
  </g>
  <g id="unauthorized-access">
    <path id="base" class="cls-4" d="M84,36h72l48,48v72l-48,48H84L36,156V84Z"/>
    <path id="base_copy" data-name="base copy" class="cls-5" d="M149.787,189H90.213L51,149.787V90.213L90.213,51h59.574L189,90.213v59.574Z"/>
    <path id="stop_hand" data-name="stop hand" class="cls-4" d="M87.221,149.01c0,20.4,18.1,20.993,18.327,20.994l28.32-.087c6.525,0,18.864-3.964,18.864-18.966l0.056-20.933,0.057,0.035V105.662a5.609,5.609,0,0,0-11.212,0l0.014,23.213-1.431-.1a9.226,9.226,0,0,0-5.984,2.622c-2.323,2.287-3.5,5.879-3.5,10.675v0.657h-2.569v-0.657c0-5.525,1.442-9.735,4.285-12.525a12.1,12.1,0,0,1,6.708-3.236L139.18,83.2a5.652,5.652,0,0,0-11.141,1.117v33.71h-2.384v-42.2a5.636,5.636,0,0,0-11.266,0v42.2h-2.472V80.752a5.638,5.638,0,0,0-11.268,0v37.271H98.421v-25.3a5.638,5.638,0,0,0-11.268,0Z"/>
    <path id="border" class="cls-6" d="M206,156a1.994,1.994,0,0,1-.586,1.414l-48,48A1.994,1.994,0,0,1,156,206H84a1.994,1.994,0,0,1-1.414-.586h0l-48-48h0A1.994,1.994,0,0,1,34,156V84a1.994,1.994,0,0,1,.586-1.414h0l48-48h0A1.994,1.994,0,0,1,84,34h72a1.994,1.994,0,0,1,1.414.586h0l48,48h0A1.994,1.994,0,0,1,206,84v72Zm-4-71.172L155.172,38H84.828L38,84.828v70.344L84.828,202h70.344L202,155.172V84.828Z"/>
  </g>
</svg>
