<svg id="icon-403" xmlns="http://www.w3.org/2000/svg" width="240" height="240" viewBox="0 0 240 240">
  <defs>
    <style>
      .cls-1 {
        fill: #dae3ed;
      }

      .cls-1, .cls-2, .cls-3, .cls-4, .cls-5 {
        fill-rule: evenodd;
      }

      .cls-2 {
        fill: #fff;
      }

      .cls-3 {
        fill: #848585;
      }

      .cls-4 {
        fill: #91c024;
      }

      .cls-5 {
        fill: #004ea1;
      }
    </style>
  </defs>
  <g id="icon-bg-abstract">
    <path id="icon-bg-abstract-2" data-name="icon-bg-abstract" class="cls-1" d="M224,240H176a16,16,0,0,1-16-16V176a16,16,0,0,1,16-16h48a16,16,0,0,1,16,16v48A16,16,0,0,1,224,240Zm8-64a8,8,0,0,0-8-8H176a8,8,0,0,0-8,8v48a8,8,0,0,0,8,8h48a8,8,0,0,0,8-8V176ZM194,96h8a8,8,0,0,1,8,8v8a8,8,0,0,1-8,8h-8a8,8,0,0,1-8-8v-8A8,8,0,0,1,194,96ZM60,100a8,8,0,0,1-8,8H44a8,8,0,0,1-8-8V92a8,8,0,0,1,8-8h8a8,8,0,0,1,8,8v8Zm2,116a8,8,0,0,1,8,8v8a8,8,0,0,1-8,8H54a8,8,0,0,1-8-8v-8a8,8,0,0,1,8-8h8Zm94-58H92a16,16,0,0,1-16-16V78A16,16,0,0,1,92,62h64a16,16,0,0,1,16,16v64A16,16,0,0,1,156,158ZM32,48H16A16,16,0,0,1,0,32V16A16,16,0,0,1,16,0H32A16,16,0,0,1,48,16V32A16,16,0,0,1,32,48Zm146-3h8a8,8,0,0,1,8,8v8a8,8,0,0,1-8,8h-8a8,8,0,0,1-8-8V53A8,8,0,0,1,178,45Z"/>
    <path id="icon-bg-abstract_copy_2" data-name="icon-bg-abstract copy 2" class="cls-1" d="M92,120a16,16,0,0,1,16,16v32a16,16,0,0,1-16,16H60a16,16,0,0,1-16-16V136a16,16,0,0,1,16-16H92ZM52,136v32a8,8,0,0,0,8,8H92a8,8,0,0,0,8-8V136a8,8,0,0,0-8-8H60A8,8,0,0,0,52,136Z"/>
    <path id="icon-bg-abstract_copy" data-name="icon-bg-abstract copy" class="cls-1" d="M160,94a16,16,0,0,1-16-16V46a16,16,0,0,1,16-16h32a16,16,0,0,1,16,16V78a16,16,0,0,1-16,16H160Zm40-16V46a8,8,0,0,0-8-8H160a8,8,0,0,0-8,8V78a8,8,0,0,0,8,8h32A8,8,0,0,0,200,78Z"/>
  </g>
  <g id="telescope">
    <g id="_Group_" data-name="&lt;Group&gt;">
      <path id="_Path_" data-name="&lt;Path&gt;" class="cls-2" d="M41.052,120.116l1.378-18.2,3.388-.861,3.751,0.861,5.241-3.109L64.785,86.7h4.424L73.7,88.321l12.578-4.179,4-14.218L94.216,67l8.247,3.557,70.366-30.192,4.677-8.282,3.446-2.088,6.489,1.378,4.045,2.119,8.645,4.969,6.024,6.587,2.067,8.822-1.673,7.85L204.481,67l-0.18,5.96-2.97,2.7-3.774,1.8-5.481-.95-13.627,4.322-60.8,25.481-1.017,4.867-2.527,3.63-6.465.866-5.175.763-13-2.281-4.3,1.518-1.632,4.445-2.7,1.33H63.5l-4.192,2.093-2.194,2.728-3.425,2.892-4.117-1.9-6.045-3.544-2.473-2.273v-1.33Z"/>
      <g id="_Group_2" data-name="&lt;Group&gt;">
        <g id="_Group_3" data-name="&lt;Group&gt;">
          <path id="_Compound_Path_" data-name="&lt;Compound Path&gt;" class="cls-3" d="M208.217,45.758c-2.981-6.817-8.859-11.685-15.251-12.979C189.484,29.762,185.806,28,182.41,28a9.2,9.2,0,0,0-3.734.767L168.989,33c-3.274,1.435-5.38,4.691-6.286,9.022l-59.648,26.1a14.111,14.111,0,0,0-7.113-2.28A9.22,9.22,0,0,0,92.2,66.6h0l-9.682,4.232c-4.55,2-6.86,7.5-6.786,14.538l-1.261.544a10.871,10.871,0,0,0-5.328-1.677,7.427,7.427,0,0,0-3.016.616l-7.292,3.191c-3.155,1.382-5.066,4.815-5.381,9.663-0.028.446,0.015,0.934,0.013,1.4L50.4,100.448a8.626,8.626,0,0,0-4.1-1.186,6.157,6.157,0,0,0-2.47.5l-5.49,2.4c-2.554,1.114-4.1,3.849-4.349,7.7a24.6,24.6,0,0,0,2.242,11.135c3.076,7.023,8.214,11.747,12.792,11.747a6.194,6.194,0,0,0,2.475-.5l5.487-2.408a7.3,7.3,0,0,0,3.98-5.291l3.03-1.323c2.861,2.627,5.937,4.164,8.77,4.164a7.46,7.46,0,0,0,3.015-.62l7.3-3.19c2.532-1.107,4.178-3.594,4.925-6.873l1.22-.531c3.762,3.558,7.819,5.645,11.536,5.645a9.25,9.25,0,0,0,3.736-.767l9.686-4.242c3.211-1.4,5.378-4.56,6.3-9.015l0.919-.406v18.94c-8.083.256-18.07,1.416-18.07,5.595V137.7c0,1.93,2.149,3.211,5.247,4.063L87.8,188.908c-4.857.3-8.422,2.693-8.422,5.854,0,3.377,4.046,5.932,9.413,5.932s9.41-2.555,9.41-5.932c0-2-1.451-3.705-3.741-4.76l7.945-18.036,19.808,5.8v23.081c-3.651.806-6.148,2.922-6.148,5.566,0,3.377,4.048,5.922,9.413,5.922s9.413-2.545,9.413-5.922c0-2.644-2.492-4.76-6.143-5.566V177.79l20.832-5.851L157.533,190c-2.288,1.055-3.742,2.755-3.742,4.76,0,3.377,4.047,5.932,9.415,5.932s9.411-2.555,9.411-5.932c0-3.161-3.562-5.559-8.424-5.854l-20.888-47.427c2.59-.845,4.327-2.051,4.327-3.781v-5.772c0-4.179-9.986-5.339-18.069-5.595V105.489a4.05,4.05,0,0,0-.3-1.533l50.8-22.233a14.039,14.039,0,0,0,7.161,2.26,9.264,9.264,0,0,0,3.739-.76l9.685-4.242c4.262-1.861,6.547-6.817,6.753-13.224C210.733,60.264,211.25,52.687,208.217,45.758ZM104.064,168.2l11.145-25.3c2.34,0.235,4.761.36,7,.419v30.183Zm43.85-.039-19.168,5.386V143.322c2.56-.069,5.351-0.223,7.993-0.531ZM204.476,47.393c3.535,8.078,1.318,17.139-5.048,20.631a0.44,0.44,0,0,0-.1.056,3.562,3.562,0,0,1-.324.187c-0.03.01-.128,0.046-0.156,0.059a0.6,0.6,0,0,0-.089.032l-0.016.01a0.345,0.345,0,0,0-.044.016c-3.15,1.012-9.331-3.479-13.333-12.625-3.882-8.871-3.251-16.661-.229-18.364a0.343,0.343,0,0,1,.046-0.026l0-.007a0.788,0.788,0,0,0,.113-0.046c0.016-.006.072-0.039,0.09-0.049a2.12,2.12,0,0,1,.4-0.128c0.036-.013.076-0.029,0.112-0.039a11.814,11.814,0,0,1,3.747-.606C195.662,36.494,201.623,40.874,204.476,47.393ZM185.837,32.92c-0.394.095-.8,0.157-1.183,0.282-0.337.1-.631,0.2-0.912,0.321l-0.18.092-0.012.007c-0.083.032-.167,0.065-0.25,0.1a1.84,1.84,0,0,0-.482.3c-5.117,3.253-5.652,13.192-1.2,23.37,3.922,8.959,10.55,15.216,16.124,15.216a7.2,7.2,0,0,0,1.847-.236,1.665,1.665,0,0,0,.558-0.157c0.068-.026.139-0.059,0.256-0.111,0.065-.026.128-0.049,0.2-0.079a7.682,7.682,0,0,0,.842-0.449c0.357-.2.694-0.423,1.032-0.649a6.938,6.938,0,0,1-3.463,4.311,5.25,5.25,0,0,1-2.1.416c-5.592,0-13.076-7.449-17.4-17.339-5.6-12.785-4.1-23.668.8-25.81a5.091,5.091,0,0,1,2.1-.426A8.588,8.588,0,0,1,185.837,32.92ZM98.181,70.3c-2.958,1.526-4.758,4.92-5.068,9.65a32.919,32.919,0,0,0,3,14.853c4.016,9.182,10.918,15.586,16.782,15.592h0a7.817,7.817,0,0,0,2.568-.465,6.255,6.255,0,0,1-2.927,3.152,5.309,5.309,0,0,1-2.1.419c-5.595,0-13.079-7.456-17.4-17.342-5.594-12.786-4.1-23.671.8-25.81a5.039,5.039,0,0,1,2.1-.423A7.486,7.486,0,0,1,98.181,70.3Zm-18.574,31.73A46.481,46.481,0,0,0,86.273,113l-2.231.976c-2.359,1.035-7.27-2.643-10.233-9.414-2.922-6.673-2.393-12.848.029-13.91l2.213-.97A46.81,46.81,0,0,0,79.607,102.027Zm-9.541,4.17c3.142,7.187,8.389,12.019,13.063,12.039a3.882,3.882,0,0,1-1.7,1.6,3.511,3.511,0,0,1-1.376.275c-3.424,0-9.015-4.475-12.638-12.75a27.992,27.992,0,0,1-2.6-12.579c0.21-3.21,1.284-5.461,2.942-6.188a3.343,3.343,0,0,1,1.378-.278,4.441,4.441,0,0,1,.961.128,10.151,10.151,0,0,0-2.339,6.339A25.238,25.238,0,0,0,70.066,106.2Zm-13.684,5.991a35.53,35.53,0,0,0,4.709,7.849l-3.022,1.324a1.135,1.135,0,0,1-.459.085c-1.748,0-4.686-2.581-6.578-6.912a15.623,15.623,0,0,1-1.441-6.929c0.1-1.49.557-2.594,1.2-2.872l3.019-1.324A35.9,35.9,0,0,0,56.381,112.188Zm-9.094,3.977c2.141,4.894,5.572,8.386,8.887,9.189a2.23,2.23,0,0,1-.829.75c-2.27.989-7.018-2.581-9.887-9.133a20.761,20.761,0,0,1-1.907-9.238c0.138-2.181.855-3.76,1.907-4.222a2.1,2.1,0,0,1,.835-0.167c0.085,0,.191.052,0.282,0.059a9.334,9.334,0,0,0-1.063,3.937A19.5,19.5,0,0,0,47.288,116.165Zm77.425-14.682a4.118,4.118,0,0,0-1.635.714l-8.737,3.823a3.465,3.465,0,0,1-1.439.288h0c-3.533,0-9.3-4.609-13.038-13.139A28.8,28.8,0,0,1,97.19,80.213c0.218-3.318,1.328-5.65,3.054-6.4L162.188,46.7a42.9,42.9,0,0,0,3.891,17.49,43.057,43.057,0,0,0,10.235,14.715Z"/>
          <path id="_Path_2" data-name="&lt;Path&gt;" class="cls-3" d="M188.046,43.73a9.007,9.007,0,0,1,12.085,1.317c-2.76-5.156-8.37-6.8-13.783-5.032Q187.2,41.873,188.046,43.73Z"/>
          <path id="_Path_3" data-name="&lt;Path&gt;" class="cls-3" d="M155.869,54.41L105.437,75.824a2.046,2.046,0,0,0,.8,3.928,2.148,2.148,0,0,0,.8-0.164L157.468,58.17A2.043,2.043,0,1,0,155.869,54.41Z"/>
        </g>
        <path id="_Path_4" data-name="&lt;Path&gt;" class="cls-4" d="M34.053,50.029a31.311,31.311,0,0,0,6.576,1.206,37.7,37.7,0,0,0,1.122,7.086,29.1,29.1,0,0,0,1.113,3.336,11.871,11.871,0,0,0,.581,1.263,10.815,10.815,0,0,0,.584-1.263,26.942,26.942,0,0,0,1.116-3.336,37.491,37.491,0,0,0,1.119-7.081,30.885,30.885,0,0,0,6.579-1.206,23.785,23.785,0,0,0,3.1-1.2,9.53,9.53,0,0,0,1.173-.629,11.3,11.3,0,0,0-1.173-.623,23.321,23.321,0,0,0-3.1-1.206,30.642,30.642,0,0,0-6.582-1.2,37.906,37.906,0,0,0-1.124-7.086,27.489,27.489,0,0,0-1.113-3.336,11.13,11.13,0,0,0-.578-1.266,12.246,12.246,0,0,0-.575,1.266,27.651,27.651,0,0,0-1.108,3.336,37.918,37.918,0,0,0-1.127,7.086,31.339,31.339,0,0,0-6.582,1.2,24.967,24.967,0,0,0-3.1,1.2,12.531,12.531,0,0,0-1.173.62,10.079,10.079,0,0,0,1.173.623A24.179,24.179,0,0,0,34.053,50.029Z"/>
        <path id="_Path_5" data-name="&lt;Path&gt;" class="cls-4" d="M190.349,108.1a30.361,30.361,0,0,0-6.588-1.2,37.8,37.8,0,0,0-1.121-7.091,28.356,28.356,0,0,0-1.11-3.331c-0.323-.8-0.572-1.269-0.572-1.269a13.857,13.857,0,0,0-.586,1.269,28.787,28.787,0,0,0-1.108,3.331,38.449,38.449,0,0,0-1.122,7.1,30.653,30.653,0,0,0-6.584,1.2,24.158,24.158,0,0,0-3.1,1.195,11.764,11.764,0,0,0-1.173.62,9.935,9.935,0,0,0,1.173.629,24.614,24.614,0,0,0,3.1,1.195,31.26,31.26,0,0,0,6.579,1.207,38,38,0,0,0,1.116,7.091,28.81,28.81,0,0,0,1.116,3.334,10.512,10.512,0,0,0,.589,1.266,13.9,13.9,0,0,0,.577-1.266,28.316,28.316,0,0,0,1.113-3.334,38.382,38.382,0,0,0,1.125-7.086,30.928,30.928,0,0,0,6.576-1.2,25,25,0,0,0,3.1-1.2,9.2,9.2,0,0,0,1.166-.632,12.238,12.238,0,0,0-1.166-.623A25.522,25.522,0,0,0,190.349,108.1Z"/>
        <path id="_Path_6" data-name="&lt;Path&gt;" class="cls-4" d="M90.287,37.98a22.284,22.284,0,0,0-4.735-.872,27.637,27.637,0,0,0-.81-5.095,20.636,20.636,0,0,0-.8-2.4,8.423,8.423,0,0,0-.417-0.912s-0.178.329-.416,0.912a21.206,21.206,0,0,0-.8,2.4,27.459,27.459,0,0,0-.81,5.1,22.668,22.668,0,0,0-4.735.867,18.341,18.341,0,0,0-2.226.864,6.355,6.355,0,0,0-.844.453,7.78,7.78,0,0,0,.844.445,17.873,17.873,0,0,0,2.226.864,23.025,23.025,0,0,0,4.735.867,27.186,27.186,0,0,0,.8,5.1,19.76,19.76,0,0,0,.807,2.4c0.238,0.575.416,0.912,0.416,0.912s0.184-.337.422-0.912a22.189,22.189,0,0,0,.8-2.4,27.857,27.857,0,0,0,.807-5.1,21.927,21.927,0,0,0,4.73-.861,16.868,16.868,0,0,0,2.226-.869,8.161,8.161,0,0,0,.844-0.445,6.808,6.808,0,0,0-.844-0.456A16.685,16.685,0,0,0,90.287,37.98Z"/>
      </g>
    </g>
  </g>
  <g id="sparkles_copy" data-name="sparkles copy">
    <path id="green" class="cls-4" d="M34,187a6,6,0,1,1-6,6A6,6,0,0,1,34,187ZM61,22a2,2,0,1,1-2,2A2,2,0,0,1,61,22Z"/>
    <path id="blue" class="cls-5" d="M191,188h-2v2a2,2,0,0,1-4,0v-2h-2a2,2,0,0,1,0-4h2v-2a2,2,0,0,1,4,0v2h2A2,2,0,0,1,191,188ZM67,160H65v2a2,2,0,0,1-4,0v-2H59a2,2,0,0,1,0-4h2v-2a2,2,0,0,1,4,0v2h2A2,2,0,0,1,67,160Zm46,32v-2h16v2H113Zm0-6h16v2H113v-2Zm0-4h16v2H113v-2ZM208,26a2,2,0,1,1-2,2A2,2,0,0,1,208,26Z"/>
  </g>
</svg>
