<svg id="icon-404_-v2" data-name="icon-404 -v2" xmlns="http://www.w3.org/2000/svg" width="240" height="240" viewBox="0 0 240 240">
  <defs>
    <style>
      .cls-1 {
        fill: #dae3ed;
      }

      .cls-1, .cls-2, .cls-3, .cls-4, .cls-5, .cls-6 {
        fill-rule: evenodd;
      }

      .cls-2 {
        fill: #91c024;
      }

      .cls-3 {
        fill: #004ea1;
      }

      .cls-4, .cls-6 {
        fill: #fff;
      }

      .cls-4 {
        stroke: #848585;
        stroke-width: 3px;
      }

      .cls-5 {
        fill: #848585;
      }
    </style>
  </defs>
  <g id="icon-bg-abstract">
    <path id="icon-bg-abstract-2" data-name="icon-bg-abstract" class="cls-1" d="M224,240H176a16,16,0,0,1-16-16V176a16,16,0,0,1,16-16h48a16,16,0,0,1,16,16v48A16,16,0,0,1,224,240Zm8-64a8,8,0,0,0-8-8H176a8,8,0,0,0-8,8v48a8,8,0,0,0,8,8h48a8,8,0,0,0,8-8V176ZM194,96h8a8,8,0,0,1,8,8v8a8,8,0,0,1-8,8h-8a8,8,0,0,1-8-8v-8A8,8,0,0,1,194,96ZM60,100a8,8,0,0,1-8,8H44a8,8,0,0,1-8-8V92a8,8,0,0,1,8-8h8a8,8,0,0,1,8,8v8Zm2,116a8,8,0,0,1,8,8v8a8,8,0,0,1-8,8H54a8,8,0,0,1-8-8v-8a8,8,0,0,1,8-8h8Zm94-58H92a16,16,0,0,1-16-16V78A16,16,0,0,1,92,62h64a16,16,0,0,1,16,16v64A16,16,0,0,1,156,158ZM32,48H16A16,16,0,0,1,0,32V16A16,16,0,0,1,16,0H32A16,16,0,0,1,48,16V32A16,16,0,0,1,32,48Zm146-3h8a8,8,0,0,1,8,8v8a8,8,0,0,1-8,8h-8a8,8,0,0,1-8-8V53A8,8,0,0,1,178,45Z"/>
    <path id="icon-bg-abstract_copy_2" data-name="icon-bg-abstract copy 2" class="cls-1" d="M92,120a16,16,0,0,1,16,16v32a16,16,0,0,1-16,16H60a16,16,0,0,1-16-16V136a16,16,0,0,1,16-16H92ZM52,136v32a8,8,0,0,0,8,8H92a8,8,0,0,0,8-8V136a8,8,0,0,0-8-8H60A8,8,0,0,0,52,136Z"/>
    <path id="icon-bg-abstract_copy" data-name="icon-bg-abstract copy" class="cls-1" d="M160,94a16,16,0,0,1-16-16V46a16,16,0,0,1,16-16h32a16,16,0,0,1,16,16V78a16,16,0,0,1-16,16H160Zm40-16V46a8,8,0,0,0-8-8H160a8,8,0,0,0-8,8V78a8,8,0,0,0,8,8h32A8,8,0,0,0,200,78Z"/>
  </g>
  <g id="sparkles">
    <path id="green" class="cls-2" d="M204.414,42.414h0l-20,20h0a2,2,0,1,1-2.828-2.828h0l20-20h0A2,2,0,1,1,204.414,42.414ZM171,60a2,2,0,0,1-2-2V28a2,2,0,1,1,4,0V58A2,2,0,0,1,171,60Zm-12,3a1.994,1.994,0,0,1-1.414-.586h0l-20-20h0a2,2,0,1,1,2.828-2.828h0l20,20h0A2,2,0,0,1,159,63Zm31,125a6,6,0,1,1-6,6A6,6,0,0,1,190,188ZM55,26a2,2,0,1,1-2,2A2,2,0,0,1,55,26Zm51,180a6,6,0,1,1-6,6A6,6,0,0,1,106,206Z"/>
    <path id="blue" class="cls-3" d="M92,41H90v2a2,2,0,1,1-4,0V41H84a2,2,0,0,1,0-4h2V35a2,2,0,0,1,4,0v2h2A2,2,0,1,1,92,41ZM50,196H48v2a2,2,0,0,1-4,0v-2H42a2,2,0,1,1,0-4h2v-2a2,2,0,0,1,4,0v2h2A2,2,0,0,1,50,196ZM30,62V60H46v2H30Zm0-6H46v2H30V56Zm0-4H46v2H30V52Zm2,163a2,2,0,1,1-2,2A2,2,0,0,1,32,215Z"/>
  </g>
  <g id="unplugged">
    <g id="_Group_" data-name="&lt;Group&gt;">
      <g id="_Group_2" data-name="&lt;Group&gt;">
        <g id="_Group_3" data-name="&lt;Group&gt;">
          <path id="_Path_" data-name="&lt;Path&gt;" class="cls-4" d="M52.782,131.265h-34.6V115.61h34.6v15.655Z"/>
        </g>
        <g id="_Group_4" data-name="&lt;Group&gt;">
          <path id="_Path_2" data-name="&lt;Path&gt;" class="cls-4" d="M61.728,152.512H58.746a29.075,29.075,0,0,1-29.075-29.075h0A29.075,29.075,0,0,1,58.746,94.363h2.982v58.149Z"/>
        </g>
        <g id="_Group_5" data-name="&lt;Group&gt;">
          <path id="_Path_3" data-name="&lt;Path&gt;" class="cls-4" d="M99.748,110.018H72.165a5.982,5.982,0,0,1-5.964-5.964h0a5.981,5.981,0,0,1,5.964-5.964H99.748a5.981,5.981,0,0,1,5.964,5.964h0A5.981,5.981,0,0,1,99.748,110.018Z"/>
        </g>
        <g id="_Group_6" data-name="&lt;Group&gt;">
          <path id="_Path_4" data-name="&lt;Path&gt;" class="cls-4" d="M99.748,147.293H72.165a5.981,5.981,0,0,1-5.964-5.964h0a5.982,5.982,0,0,1,5.964-5.964H99.748a5.981,5.981,0,0,1,5.964,5.964h0A5.98,5.98,0,0,1,99.748,147.293Z"/>
        </g>
      </g>
      <g id="_Group_7" data-name="&lt;Group&gt;">
        <path id="_Path_5" data-name="&lt;Path&gt;" class="cls-4" d="M212.871,172.088H126.586a8.972,8.972,0,0,1-8.946-8.946V76.858a8.972,8.972,0,0,1,8.946-8.946h86.285a8.972,8.972,0,0,1,8.946,8.946v86.284A8.972,8.972,0,0,1,212.871,172.088Z"/>
      </g>
      <g id="_Group_8" data-name="&lt;Group&gt;">
        <path id="_Path_6" data-name="&lt;Path&gt;" class="cls-5" d="M206.628,164.551h-73.8a7.674,7.674,0,0,1-7.651-7.652V83.1a7.674,7.674,0,0,1,7.651-7.651h73.8A7.675,7.675,0,0,1,214.28,83.1v73.8A7.675,7.675,0,0,1,206.628,164.551Z"/>
      </g>
      <g id="_Group_9" data-name="&lt;Group&gt;">
        <path id="_Path_7" data-name="&lt;Path&gt;" class="cls-6" d="M204.54,162.029H134.918a7.24,7.24,0,0,1-7.219-7.218V85.189a7.24,7.24,0,0,1,7.219-7.218H204.54a7.239,7.239,0,0,1,7.218,7.218v69.622A7.239,7.239,0,0,1,204.54,162.029Z"/>
      </g>
      <g id="_Group_10" data-name="&lt;Group&gt;">
        <path id="_Path_8" data-name="&lt;Path&gt;" class="cls-5" d="M156.406,119.71a9.319,9.319,0,1,1-9.318-9.319A9.319,9.319,0,0,1,156.406,119.71Z"/>
      </g>
      <g id="_Group_11" data-name="&lt;Group&gt;">
        <path id="_Path_9" data-name="&lt;Path&gt;" class="cls-5" d="M202.628,119.71a9.319,9.319,0,1,1-9.319-9.319A9.32,9.32,0,0,1,202.628,119.71Z"/>
      </g>
    </g>
  </g>
</svg>
