<svg id="icon-419_-v2" data-name="icon-419 -v2" xmlns="http://www.w3.org/2000/svg" width="240" height="240" viewBox="0 0 240 240">
  <defs>
    <style>
      .cls-1 {
        fill: #dae3ed;
      }

      .cls-1, .cls-2, .cls-3, .cls-4, .cls-5, .cls-6, .cls-7, .cls-8, .cls-9 {
        fill-rule: evenodd;
      }

      .cls-2 {
        fill: none;
        stroke-linecap: round;
      }

      .cls-2, .cls-5, .cls-6 {
        stroke: #848585;
      }

      .cls-2, .cls-6 {
        stroke-width: 1px;
      }

      .cls-3 {
        fill: #848585;
      }

      .cls-4 {
        fill: #fffdfb;
      }

      .cls-5 {
        fill: #fff;
        stroke-width: 3px;
      }

      .cls-6 {
        fill: #ff735d;
      }

      .cls-7 {
        fill: #f01;
      }

      .cls-8 {
        fill: #91c024;
      }

      .cls-9 {
        fill: #004ea1;
      }
    </style>
  </defs>
  <g id="icon-bg-abstract">
    <path id="icon-bg-abstract-2" data-name="icon-bg-abstract" class="cls-1" d="M224,240H176a16,16,0,0,1-16-16V176a16,16,0,0,1,16-16h48a16,16,0,0,1,16,16v48A16,16,0,0,1,224,240Zm8-64a8,8,0,0,0-8-8H176a8,8,0,0,0-8,8v48a8,8,0,0,0,8,8h48a8,8,0,0,0,8-8V176ZM194,96h8a8,8,0,0,1,8,8v8a8,8,0,0,1-8,8h-8a8,8,0,0,1-8-8v-8A8,8,0,0,1,194,96ZM60,100a8,8,0,0,1-8,8H44a8,8,0,0,1-8-8V92a8,8,0,0,1,8-8h8a8,8,0,0,1,8,8v8Zm2,116a8,8,0,0,1,8,8v8a8,8,0,0,1-8,8H54a8,8,0,0,1-8-8v-8a8,8,0,0,1,8-8h8Zm94-58H92a16,16,0,0,1-16-16V78A16,16,0,0,1,92,62h64a16,16,0,0,1,16,16v64A16,16,0,0,1,156,158ZM32,48H16A16,16,0,0,1,0,32V16A16,16,0,0,1,16,0H32A16,16,0,0,1,48,16V32A16,16,0,0,1,32,48Zm146-3h8a8,8,0,0,1,8,8v8a8,8,0,0,1-8,8h-8a8,8,0,0,1-8-8V53A8,8,0,0,1,178,45Z"/>
    <path id="icon-bg-abstract_copy_2" data-name="icon-bg-abstract copy 2" class="cls-1" d="M92,120a16,16,0,0,1,16,16v32a16,16,0,0,1-16,16H60a16,16,0,0,1-16-16V136a16,16,0,0,1,16-16H92ZM52,136v32a8,8,0,0,0,8,8H92a8,8,0,0,0,8-8V136a8,8,0,0,0-8-8H60A8,8,0,0,0,52,136Z"/>
    <path id="icon-bg-abstract_copy" data-name="icon-bg-abstract copy" class="cls-1" d="M160,94a16,16,0,0,1-16-16V46a16,16,0,0,1,16-16h32a16,16,0,0,1,16,16V78a16,16,0,0,1-16,16H160Zm40-16V46a8,8,0,0,0-8-8H160a8,8,0,0,0-8,8V78a8,8,0,0,0,8,8h32A8,8,0,0,0,200,78Z"/>
  </g>
  <g id="parachutes">
    <g id="_Group_" data-name="&lt;Group&gt;">
      <path id="_Path_" data-name="&lt;Path&gt;" class="cls-2" d="M53.014,92.9l77.028,39.343,57.085-64.481"/>
      <path id="_Path_2" data-name="&lt;Path&gt;" class="cls-2" d="M63.766,93.5l66.276,38.74,45.752-60.656"/>
      <path id="_Path_3" data-name="&lt;Path&gt;" class="cls-2" d="M74.092,90.37l55.951,41.869,34.772-59.668"/>
      <path id="_Path_4" data-name="&lt;Path&gt;" class="cls-2" d="M86.963,87.363l43.079,44.876,21.283-56.807"/>
      <path id="_Path_5" data-name="&lt;Path&gt;" class="cls-2" d="M118.846,79.427l10.79,49.539"/>
      <path id="_Path_6" data-name="&lt;Path&gt;" class="cls-2" d="M100.969,84.329l29.073,47.91,6.836-54.083"/>
      <path id="_Path_7" data-name="&lt;Path&gt;" class="cls-3" d="M52.638,93.112s6.549-1.734,11.129.388c0,0,8.751-12.6,23.2-6.136,0,0,15.551-15.765,31.883-7.936,0,0,16.731-14.5,32.479-3.995,0,0,12.55-11.266,24.542-3.32,0,0,3.893-8.546,11.774-4.175l-15.4-19.078L70.724,66.175S53.716,79.819,52.638,93.112Z"/>
      <path id="_Path_8" data-name="&lt;Path&gt;" class="cls-4" d="M52.533,88.21a1.8,1.8,0,0,0,2.993,1.482,13.512,13.512,0,0,1,4.768-2.736c4.97-1.684,9.326.532,12.045,3.051a1.785,1.785,0,0,0,2.9-.776,13.892,13.892,0,0,1,10.26-9.82C92.13,77.895,96.918,81.27,99.447,83.8a1.8,1.8,0,0,0,2.98-.6c1.623-4.348,5.727-12.011,14.9-14.01s15.278,4.324,18.089,8.233a1.792,1.792,0,0,0,3.062-.272c2.03-4.2,6.553-11.034,14.216-10.195,6.03,0.661,9.013,3.177,10.476,5.308a1.827,1.827,0,0,0,3.074-.2c2.085-3.614,6.039-8.769,11.566-8.62,8.487,0.228,9.886,4.619,9.886,4.619s-20.446-52.924-79.312-41.44C61.716,35.735,53.807,73.112,52.533,88.21Z"/>
      <g id="_Group_2" data-name="&lt;Group&gt;">
        <g id="_Group_3" data-name="&lt;Group&gt;">
          <g id="_Group_4" data-name="&lt;Group&gt;">
            <g id="_Group_5" data-name="&lt;Group&gt;">
              <g id="_Group_6" data-name="&lt;Group&gt;">
                <path id="_Path_9" data-name="&lt;Path&gt;" class="cls-5" d="M180.6,152.451a47.189,47.189,0,1,1-60.239-28.72A47.19,47.19,0,0,1,180.6,152.451Z"/>
              </g>
            </g>
          </g>
        </g>
        <g id="_Group_7" data-name="&lt;Group&gt;">
          <g id="_Group_8" data-name="&lt;Group&gt;">
            <g id="_Group_9" data-name="&lt;Group&gt;">
              <g id="_Group_10" data-name="&lt;Group&gt;">
                <path id="_Path_10" data-name="&lt;Path&gt;" class="cls-5" d="M168.975,155.775a35.873,35.873,0,1,1-45.794-21.833A35.873,35.873,0,0,1,168.975,155.775Z"/>
              </g>
            </g>
          </g>
        </g>
        <g id="_Group_11" data-name="&lt;Group&gt;">
          <g id="_Group_12" data-name="&lt;Group&gt;">
            <g id="_Group_13" data-name="&lt;Group&gt;">
              <g id="_Group_14" data-name="&lt;Group&gt;">
                <path id="_Path_11" data-name="&lt;Path&gt;" class="cls-6" d="M170.429,156.846a35.392,35.392,0,1,1-45.179-21.54A35.391,35.391,0,0,1,170.429,156.846Z"/>
              </g>
            </g>
          </g>
        </g>
        <g id="_Group_15" data-name="&lt;Group&gt;">
          <g id="_Group_16" data-name="&lt;Group&gt;">
            <g id="_Group_17" data-name="&lt;Group&gt;">
              <g id="_Group_18" data-name="&lt;Group&gt;">
                <path id="_Path_12" data-name="&lt;Path&gt;" class="cls-5" d="M170.429,156.846a35.392,35.392,0,1,1-45.179-21.54A35.391,35.391,0,0,1,170.429,156.846Z"/>
              </g>
            </g>
          </g>
        </g>
      </g>
      <g id="_Group_19" data-name="&lt;Group&gt;">
        <path id="_Path_13" data-name="&lt;Path&gt;" class="cls-7" d="M187.641,67.937c0.035,0.086.054,0.134,0.054,0.134S187.675,68.017,187.641,67.937Z"/>
        <path id="_Path_14" data-name="&lt;Path&gt;" class="cls-8" d="M164.2,72.966a1.879,1.879,0,0,0,2.04-.894c2.085-3.614,6.039-8.769,11.566-8.62,7.634,0.2,9.528,3.768,9.832,4.485-1.162-2.876-22.094-52.458-79.257-41.306C153.458,26.363,162.556,62.943,164.2,72.966Z"/>
      </g>
      <path id="_Path_15" data-name="&lt;Path&gt;" class="cls-8" d="M108.384,26.631C55.92,36.866,52.441,82.83,52.305,92.707a0.377,0.377,0,0,0,.709.189,12.494,12.494,0,0,1,7.28-5.939c4.97-1.684,9.326.532,12.045,3.051a1.74,1.74,0,0,0,1.753.362C64.523,41.453,108.384,26.631,108.384,26.631Z"/>
      <path id="_Path_16" data-name="&lt;Path&gt;" class="cls-8" d="M100.969,84.329a1.735,1.735,0,0,0,1.458-1.122c1.623-4.348,5.727-12.011,14.9-14.01s15.278,4.324,18.089,8.233a1.749,1.749,0,0,0,1.463.727c-6.762-45.978-28.494-51.525-28.494-51.525C91.379,42.3,98.783,75.935,100.969,84.329Z"/>
    </g>
  </g>
  <g id="sparkles">
    <path id="green" class="cls-8" d="M82.414,148.414h0l-20,20h0a2,2,0,1,1-2.828-2.828h0l20-20h0A2,2,0,1,1,82.414,148.414ZM49,166a2,2,0,0,1-2-2V134a2,2,0,0,1,4,0v30A2,2,0,0,1,49,166Zm-12,3a1.994,1.994,0,0,1-1.414-.586h0l-20-20h0a2,2,0,1,1,2.828-2.828h0l20,20h0A2,2,0,0,1,37,169Zm-9,15a6,6,0,1,1-6,6A6,6,0,0,1,28,184Zm152-83a2,2,0,1,1-2,2A2,2,0,0,1,180,101Z"/>
    <path id="blue" class="cls-9" d="M206,24h-2v2a2,2,0,0,1-4,0V24h-2a2,2,0,0,1,0-4h2V18a2,2,0,1,1,4,0v2h2A2,2,0,0,1,206,24ZM97,220H95v2a2,2,0,0,1-4,0v-2H89a2,2,0,1,1,0-4h2v-2a2,2,0,0,1,4,0v2h2A2,2,0,0,1,97,220ZM34,46V44H50v2H34Zm0-6H50v2H34V40Zm0-4H50v2H34V36ZM200,186a2,2,0,1,1-2,2A2,2,0,0,1,200,186Z"/>
  </g>
</svg>
