<svg id="icon-500" xmlns="http://www.w3.org/2000/svg" width="240" height="240" viewBox="0 0 240 240">
  <defs>
    <style>
      .cls-1 {
        fill: #dae3ed;
      }

      .cls-1, .cls-2, .cls-3, .cls-5, .cls-6 {
        fill-rule: evenodd;
      }

      .cls-2, .cls-7 {
        fill: #91c024;
      }

      .cls-3 {
        fill: #004ea1;
      }

      .cls-4 {
        fill: #fff;
      }

      .cls-5 {
        fill: #848585;
      }

      .cls-6 {
        fill: none;
        stroke: #848585;
        stroke-width: 4px;
      }
    </style>
  </defs>
  <g id="icon-bg-abstract">
    <path id="icon-bg-abstract-2" data-name="icon-bg-abstract" class="cls-1" d="M224,240H176a16,16,0,0,1-16-16V176a16,16,0,0,1,16-16h48a16,16,0,0,1,16,16v48A16,16,0,0,1,224,240Zm8-64a8,8,0,0,0-8-8H176a8,8,0,0,0-8,8v48a8,8,0,0,0,8,8h48a8,8,0,0,0,8-8V176ZM194,96h8a8,8,0,0,1,8,8v8a8,8,0,0,1-8,8h-8a8,8,0,0,1-8-8v-8A8,8,0,0,1,194,96ZM60,100a8,8,0,0,1-8,8H44a8,8,0,0,1-8-8V92a8,8,0,0,1,8-8h8a8,8,0,0,1,8,8v8Zm2,116a8,8,0,0,1,8,8v8a8,8,0,0,1-8,8H54a8,8,0,0,1-8-8v-8a8,8,0,0,1,8-8h8Zm94-58H92a16,16,0,0,1-16-16V78A16,16,0,0,1,92,62h64a16,16,0,0,1,16,16v64A16,16,0,0,1,156,158ZM32,48H16A16,16,0,0,1,0,32V16A16,16,0,0,1,16,0H32A16,16,0,0,1,48,16V32A16,16,0,0,1,32,48Zm146-3h8a8,8,0,0,1,8,8v8a8,8,0,0,1-8,8h-8a8,8,0,0,1-8-8V53A8,8,0,0,1,178,45Z"/>
    <path id="icon-bg-abstract_copy_2" data-name="icon-bg-abstract copy 2" class="cls-1" d="M92,120a16,16,0,0,1,16,16v32a16,16,0,0,1-16,16H60a16,16,0,0,1-16-16V136a16,16,0,0,1,16-16H92ZM52,136v32a8,8,0,0,0,8,8H92a8,8,0,0,0,8-8V136a8,8,0,0,0-8-8H60A8,8,0,0,0,52,136Z"/>
    <path id="icon-bg-abstract_copy" data-name="icon-bg-abstract copy" class="cls-1" d="M160,94a16,16,0,0,1-16-16V46a16,16,0,0,1,16-16h32a16,16,0,0,1,16,16V78a16,16,0,0,1-16,16H160Zm40-16V46a8,8,0,0,0-8-8H160a8,8,0,0,0-8,8V78a8,8,0,0,0,8,8h32A8,8,0,0,0,200,78Z"/>
  </g>
  <g id="sparkles">
    <path id="green" class="cls-2" d="M207.414,25.414h0l-20,20h0a2,2,0,1,1-2.828-2.828h0l20-20h0A2,2,0,1,1,207.414,25.414ZM174,43a2,2,0,0,1-2-2V11a2,2,0,0,1,4,0V41A2,2,0,0,1,174,43Zm-12,3a1.994,1.994,0,0,1-1.414-.586h0l-20-20h0a2,2,0,1,1,2.828-2.828h0l20,20h0A2,2,0,0,1,162,46ZM102,211a6,6,0,1,1-6,6A6,6,0,0,1,102,211Zm104-63a2,2,0,1,1-2,2A2,2,0,0,1,206,148ZM26,184a2,2,0,1,1-2,2A2,2,0,0,1,26,184Z"/>
    <path id="blue" class="cls-3" d="M30,151H28v2a2,2,0,1,1-4,0v-2H22a2,2,0,0,1,0-4h2v-2a2,2,0,1,1,4,0v2h2A2,2,0,0,1,30,151ZM219,91h-2v2a2,2,0,0,1-4,0V91h-2a2,2,0,1,1,0-4h2V85a2,2,0,1,1,4,0v2h2A2,2,0,1,1,219,91ZM12,22V20H28v2H12Zm0-6H28v2H12V16Zm0-4H28v2H12V12ZM202,175a2,2,0,1,1-2,2A2,2,0,0,1,202,175Z"/>
    <path id="blue_copy_2" data-name="blue copy 2" class="cls-3" d="M120,24h-2v2a2,2,0,1,1-4,0V24h-2a2,2,0,1,1,0-4h2V18a2,2,0,0,1,4,0v2h2A2,2,0,1,1,120,24Zm70,195h-2v2a2,2,0,0,1-4,0v-2h-2a2,2,0,0,1,0-4h2v-2a2,2,0,0,1,4,0v2h2A2,2,0,0,1,190,219Zm19-34v-2h16v2H209Zm0-6h16v2H209v-2Zm0-4h16v2H209v-2Zm-7,0a2,2,0,1,1-2,2A2,2,0,0,1,202,175Z"/>
  </g>
  <g>
    <g id="_Group_" data-name="&lt;Group&gt;">
      <rect id="_Rectangle_" data-name="&lt;Rectangle&gt;" class="cls-4" x="49" y="142" width="141" height="16"/>
      <rect id="_Rectangle_2" data-name="&lt;Rectangle&gt;" class="cls-4" x="49" y="82" width="141" height="16"/>
      <rect id="_Rectangle_3" data-name="&lt;Rectangle&gt;" class="cls-4" x="36" y="157" width="168" height="46" rx="12" ry="12"/>
      <rect id="_Rectangle_4" data-name="&lt;Rectangle&gt;" class="cls-4" x="36" y="97" width="168" height="46" rx="12" ry="12"/>
      <rect id="_Rectangle_5" data-name="&lt;Rectangle&gt;" class="cls-4" x="36" y="37" width="168" height="46" rx="12" ry="12"/>
      <path id="_Compound_Path_" data-name="&lt;Compound Path&gt;" class="cls-5" d="M195.993,204.226h-152a8,8,0,0,1-8-8v-32a8,8,0,0,1,8-8h4v-12h-4a8,8,0,0,1-8-8v-32a8,8,0,0,1,8-8h4v-12h-4a8,8,0,0,1-8-8v-32a8,8,0,0,1,8-8h152a8,8,0,0,1,8,8v32a8,8,0,0,1-8,8h-4v12h4a8,8,0,0,1,8,8v32a8,8,0,0,1-8,8h-4v12h4a8,8,0,0,1,8,8v32A8,8,0,0,1,195.993,204.226Zm0-124a4,4,0,0,0,4-4v-32a4,4,0,0,0-4-4h-152a4,4,0,0,0-4,4v32a4,4,0,0,0,4,4h152Zm-144,4v12h136v-12h-136Zm144,56a4,4,0,0,0,4-4v-32a4,4,0,0,0-4-4h-152a4,4,0,0,0-4,4v32a4,4,0,0,0,4,4h152Zm-144,4v12h136v-12h-136Zm148,20a4,4,0,0,0-4-4h-152a4,4,0,0,0-4,4v32a4,4,0,0,0,4,4h152a4,4,0,0,0,4-4v-32Zm-145,15a8,8,0,1,0,8-8A8,8,0,0,0,54.993,179.226Zm20-60a12,12,0,1,1-12-12A12,12,0,0,1,74.993,119.226Zm-24,60a12,12,0,1,1,12,12A12,12,0,0,1,50.993,179.226Zm28,0a2,2,0,0,1,2-2h60a2,2,0,0,1,0,4h-60A2,2,0,0,1,78.993,179.226Zm64-60a2,2,0,0,1-2,2h-60a2,2,0,0,1,0-4h60A2,2,0,0,1,142.993,119.226Zm-72,0a8,8,0,1,0-8,8A8,8,0,0,0,70.993,119.226Zm72-60a2,2,0,0,1-2,2h-60a2,2,0,0,1,0-4h60A2,2,0,0,1,142.993,59.226Zm-68,0a12,12,0,1,1-12-12A12,12,0,0,1,74.993,59.226Zm-4,0a8,8,0,1,0-8,8A8,8,0,0,0,70.993,59.226Z"/>
      <path id="_Rectangle_6" data-name="&lt;Rectangle&gt;" class="cls-6" d="M170,49h9a11,11,0,0,1,11,11h0a11,11,0,0,1-11,11h-9a11,11,0,0,1-11-11h0A11,11,0,0,1,170,49Z"/>
      <path id="_Rectangle_7" data-name="&lt;Rectangle&gt;" class="cls-6" d="M170,108h9a11,11,0,0,1,11,11h0a11,11,0,0,1-11,11h-9a11,11,0,0,1-11-11h0A11,11,0,0,1,170,108Z"/>
      <path id="_Rectangle_8" data-name="&lt;Rectangle&gt;" class="cls-6" d="M170,167h9a11,11,0,0,1,11,11h0a11,11,0,0,1-11,11h-9a11,11,0,0,1-11-11h0A11,11,0,0,1,170,167Z"/>
    </g>
    <circle class="cls-7" cx="63" cy="59" r="4"/>
    <circle class="cls-7" cx="63" cy="179" r="4"/>
    <circle class="cls-7" cx="63" cy="119" r="4"/>
  </g>
</svg>
