<svg id="icon-503" xmlns="http://www.w3.org/2000/svg" width="240" height="240" viewBox="0 0 240 240">
  <defs>
    <style>
      .cls-1 {
        fill: #dae3ed;
      }

      .cls-1, .cls-2, .cls-3, .cls-4, .cls-5 {
        fill-rule: evenodd;
      }

      .cls-2 {
        fill: #91c024;
      }

      .cls-3 {
        fill: #004ea1;
      }

      .cls-4 {
        fill: #fff;
      }

      .cls-5 {
        fill: #848585;
      }
    </style>
  </defs>
  <g id="icon-bg-abstract">
    <path id="icon-bg-abstract-2" data-name="icon-bg-abstract" class="cls-1" d="M224,240H176a16,16,0,0,1-16-16V176a16,16,0,0,1,16-16h48a16,16,0,0,1,16,16v48A16,16,0,0,1,224,240Zm8-64a8,8,0,0,0-8-8H176a8,8,0,0,0-8,8v48a8,8,0,0,0,8,8h48a8,8,0,0,0,8-8V176ZM194,96h8a8,8,0,0,1,8,8v8a8,8,0,0,1-8,8h-8a8,8,0,0,1-8-8v-8A8,8,0,0,1,194,96ZM60,100a8,8,0,0,1-8,8H44a8,8,0,0,1-8-8V92a8,8,0,0,1,8-8h8a8,8,0,0,1,8,8v8Zm2,116a8,8,0,0,1,8,8v8a8,8,0,0,1-8,8H54a8,8,0,0,1-8-8v-8a8,8,0,0,1,8-8h8Zm94-58H92a16,16,0,0,1-16-16V78A16,16,0,0,1,92,62h64a16,16,0,0,1,16,16v64A16,16,0,0,1,156,158ZM32,48H16A16,16,0,0,1,0,32V16A16,16,0,0,1,16,0H32A16,16,0,0,1,48,16V32A16,16,0,0,1,32,48Zm146-3h8a8,8,0,0,1,8,8v8a8,8,0,0,1-8,8h-8a8,8,0,0,1-8-8V53A8,8,0,0,1,178,45Z"/>
    <path id="icon-bg-abstract_copy_2" data-name="icon-bg-abstract copy 2" class="cls-1" d="M92,120a16,16,0,0,1,16,16v32a16,16,0,0,1-16,16H60a16,16,0,0,1-16-16V136a16,16,0,0,1,16-16H92ZM52,136v32a8,8,0,0,0,8,8H92a8,8,0,0,0,8-8V136a8,8,0,0,0-8-8H60A8,8,0,0,0,52,136Z"/>
    <path id="icon-bg-abstract_copy" data-name="icon-bg-abstract copy" class="cls-1" d="M160,94a16,16,0,0,1-16-16V46a16,16,0,0,1,16-16h32a16,16,0,0,1,16,16V78a16,16,0,0,1-16,16H160Zm40-16V46a8,8,0,0,0-8-8H160a8,8,0,0,0-8,8V78a8,8,0,0,0,8,8h32A8,8,0,0,0,200,78Z"/>
  </g>
  <g id="new_rocket" data-name="new rocket">
    <g id="sparkles">
      <path id="green" class="cls-2" d="M82.414,61.414h0l-20,20h0a2,2,0,1,1-2.828-2.828h0l20-20h0A2,2,0,1,1,82.414,61.414ZM49,79a2,2,0,0,1-2-2V47a2,2,0,0,1,4,0V77A2,2,0,0,1,49,79ZM37,82a1.994,1.994,0,0,1-1.414-.586h0l-20-20h0a2,2,0,1,1,2.828-2.828h0l20,20h0A2,2,0,0,1,37,82ZM75,19a6,6,0,1,1-6,6A6,6,0,0,1,75,19ZM194,74a2,2,0,1,1-2,2A2,2,0,0,1,194,74Zm12-60a2,2,0,1,1-2,2A2,2,0,0,1,206,14Z"/>
      <path id="blue" class="cls-3" d="M97,225H95v2a2,2,0,1,1-4,0v-2H89a2,2,0,0,1,0-4h2v-2a2,2,0,1,1,4,0v2h2A2,2,0,1,1,97,225ZM186,58h-2v2a2,2,0,0,1-4,0V58h-2a2,2,0,0,1,0-4h2V52a2,2,0,0,1,4,0v2h2A2,2,0,0,1,186,58ZM15,180v-2H31v2H15Zm0-6H31v2H15v-2Zm0-4H31v2H15v-2ZM26,22a2,2,0,1,1-2,2A2,2,0,0,1,26,22Z"/>
      <path id="blue-2" data-name="blue" class="cls-3" d="M28,123H26v2a2,2,0,0,1-4,0v-2H20a2,2,0,1,1,0-4h2v-2a2,2,0,0,1,4,0v2h2A2,2,0,0,1,28,123Zm166,59h-2v2a2,2,0,0,1-4,0v-2h-2a2,2,0,0,1,0-4h2v-2a2,2,0,0,1,4,0v2h2A2,2,0,0,1,194,182ZM160,26V24h16v2H160Zm0-6h16v2H160V20Zm0-4h16v2H160V16ZM62,133a2,2,0,1,1-2,2A2,2,0,0,1,62,133Z"/>
    </g>
    <g id="new_rocket-2" data-name="new rocket">
      <g id="_Group_" data-name="&lt;Group&gt;">
        <path id="_Path_" data-name="&lt;Path&gt;" class="cls-4" d="M165.093,146.547s-8.6,7.5-10.093,19.453c-1,8,0,14,1,22,1.144,9.148,3.718,14.343,3.718,14.343h11.4S173,195,174,188s2.581-10.932,1-22C173,152,165.093,146.547,165.093,146.547Z"/>
        <path id="_Path_2" data-name="&lt;Path&gt;" class="cls-4" d="M75.093,146.547S66.494,154.051,65,166c-1,8,0,14,1,22,1.144,9.148,3.718,14.343,3.718,14.343h11.4S83,195,84,188s2.581-10.932,1-22C83,152,75.093,146.547,75.093,146.547Z"/>
        <path id="_Path_3" data-name="&lt;Path&gt;" class="cls-4" d="M119.911,30.051s-20.1,16.611-26.006,38.28-4.453,38.281-3.679,48.475S95,148,99,161c4.282,13.916,15,36,15,36h12s10-21,14-35c2.289-8.01,8-32,9.35-45.194a131.029,131.029,0,0,0-4.2-48.475C138.369,44.4,119.911,30.051,119.911,30.051Z"/>
        <g id="_Group_2" data-name="&lt;Group&gt;">
          <path id="_Compound_Path_" data-name="&lt;Compound Path&gt;" class="cls-5" d="M178.229,172.04a49.488,49.488,0,0,0-1.675-10.975,34.544,34.544,0,0,0-4.41-9.933,32.047,32.047,0,0,0-3.488-4.441c-0.7-.74-1.672-1.637-2.233-2.109l-1.561-1.3-1.558,1.3c-4.91,4.089-8.342,9.805-10.208,16.993a51.59,51.59,0,0,0-1.623,10.735c0,0.025,0,.051,0,0.078a41.74,41.74,0,0,1-9.859-5.187c4.659-14.894,7.218-29.521,9.076-42.3,1.214-8.33,2.392-18.2,1.935-28.242a122.034,122.034,0,0,0-4.345-27c-4.926-17.806-13.947-31.93-26.811-41.979l-1.5-1.172-1.5,1.172c-1.471,1.148-4.044,3.381-5.8,5.127a80.211,80.211,0,0,0-9.161,10.96A83.1,83.1,0,0,0,91.853,68.376a117.211,117.211,0,0,0-4.482,27.573,165.828,165.828,0,0,0,1.7,28.191A247.616,247.616,0,0,0,98.3,167.267a42.45,42.45,0,0,1-9.77,5.094c0-.014,0-0.033,0-0.051a51.533,51.533,0,0,0-1.621-10.735c-1.865-7.188-5.3-12.9-10.21-16.993l-1.56-1.3-1.558,1.3a30.326,30.326,0,0,0-2.235,2.109,32.2,32.2,0,0,0-3.486,4.442,34.579,34.579,0,0,0-4.41,9.932,49.417,49.417,0,0,0-1.674,10.975,69.621,69.621,0,0,0,.624,11.124A96.157,96.157,0,0,0,67.2,204.391a55.248,55.248,0,0,0,2.152,5.172q0.315,0.654.656,1.31c0.074,0.143.156,0.287,0.237,0.431a3.483,3.483,0,0,1,.217.412A2.933,2.933,0,0,0,73.33,213.5c0.169,0,.34-0.009.505-0.021l0.093-.005c0.356-.016.709-0.016,1.063-0.016h0.3c0.271,0,.538.006,0.808,0.013s0.53,0.01.82,0.013a3.019,3.019,0,0,0,2.9-1.678c0.216-.412.415-0.838,0.612-1.26,0.134-.29.269-0.58,0.412-0.865a50.271,50.271,0,0,0,2.178-5.194,82.079,82.079,0,0,0,3.448-12.763,65.192,65.192,0,0,1,12.152-1.192,46.728,46.728,0,0,1,9.338.875c0.554,1.07,1.117,2.131,1.688,3.158,0.183,0.332.381,0.661,0.581,0.992a14.071,14.071,0,0,1,.833,1.507c0.426,0.987,1.457,2.166,3.915,2.166,0.36,0,.725-0.024,1.069-0.045,0.15-.011.3-0.022,0.421-0.025,1.058-.037,2.149-0.04,3.177-0.04H120.4c0.779,0,1.563.014,2.342,0.027,0.7,0.015,1.405.028,2.131,0.031a4.241,4.241,0,0,0,4.195-2.18c0.577-1.047,1.1-2.11,1.617-3.138,0.383-.776.768-1.55,1.173-2.315,0.019-.033.036-0.071,0.053-0.1a46.1,46.1,0,0,1,9.467-.908,65.33,65.33,0,0,1,12.151,1.188,82.092,82.092,0,0,0,3.45,12.767,51.665,51.665,0,0,0,2.181,5.194c0.138,0.289.278,0.582,0.41,0.869,0.2,0.424.4,0.846,0.612,1.265a3.037,3.037,0,0,0,2.922,1.669c0.267,0,.532-0.01.8-0.013s0.54-.013.808-0.013h0.3c0.354,0,.706,0,1.053.013l0.106,0.008c0.162,0.012.334,0.021,0.5,0.021a2.934,2.934,0,0,0,2.869-1.79,3.685,3.685,0,0,1,.214-0.407c0.082-.145.165-0.287,0.236-0.43,0.23-.437.444-0.874,0.658-1.31,0.757-1.582,1.462-3.274,2.151-5.174a96.077,96.077,0,0,0,4.808-21.225A70.039,70.039,0,0,0,178.229,172.04Zm-13.376-22.28c0.093,0.1.182,0.189,0.265,0.272a27.384,27.384,0,0,1,2.953,3.77,29.556,29.556,0,0,1,3.782,8.536c0.163,0.594.3,1.195,0.433,1.8a36.97,36.97,0,0,1-14.8.036c0.1-.457.2-0.915,0.319-1.371A28.091,28.091,0,0,1,164.853,149.76Zm-64.438,7.4a167.331,167.331,0,0,0,19.569,1.163,166.334,166.334,0,0,0,19.459-1.15c-0.141.538-.3,1.08-0.448,1.622a150.526,150.526,0,0,1-38.144-.013C100.7,158.248,100.559,157.7,100.415,157.163Zm40.875-93.29c0.181,0.5.382,0.993,0.56,1.507a257.779,257.779,0,0,0-43.879.017c0.172-.5.316-1.013,0.5-1.5A223.924,223.924,0,0,1,141.29,63.873Zm-33.8-17.325a75.579,75.579,0,0,1,8.6-10.293c1.115-1.107,2.624-2.458,3.886-3.528A70.126,70.126,0,0,1,139.8,60.017a239.807,239.807,0,0,0-39.724.01A76.239,76.239,0,0,1,107.492,46.549ZM92.237,96.158a112.287,112.287,0,0,1,4.3-26.432c0.025-.087.06-0.17,0.084-0.259a241.294,241.294,0,0,1,46.5-.025c0.151,0.508.329,0.992,0.47,1.508a117,117,0,0,1,4.176,25.926c0.437,9.632-.71,19.214-1.891,27.318-1.279,8.8-2.9,18.482-5.307,28.489a157.466,157.466,0,0,1-41.3-.017A264.509,264.509,0,0,1,93.9,123.514,161.693,161.693,0,0,1,92.237,96.158ZM68.146,162.338a29.729,29.729,0,0,1,3.781-8.533,27.133,27.133,0,0,1,2.956-3.773l0.265-.272A28.092,28.092,0,0,1,82.193,162.8c0.118,0.456.176,0.917,0.281,1.376a36.947,36.947,0,0,1-14.762-.041C67.849,163.533,67.983,162.932,68.146,162.338Zm14.839,20.481a107.024,107.024,0,0,1-3.295,16.129H70.553a97.507,97.507,0,0,1-3.323-16.372,65.6,65.6,0,0,1-.594-10.343c0.055-1.366.188-2.723,0.364-4.071a39.114,39.114,0,0,0,16.243.033c0.2,1.443.358,2.888,0.418,4.318A58.59,58.59,0,0,1,82.985,182.819Zm4.368,3.8c0.165-1.07.319-2.126,0.457-3.144,0.246-1.8.479-3.8,0.62-5.885a50.493,50.493,0,0,0,11.452-5.478q1.077,3.111,2.239,6.132c1.072,2.78,2.166,5.37,3.288,7.848a55.447,55.447,0,0,0-6.784-.429A70.077,70.077,0,0,0,87.354,186.619Zm40.194,2.652c-0.424.8-.826,1.612-1.227,2.42-0.449.9-.876,1.765-1.337,2.618h-0.115c-0.679,0-1.359-.016-2.036-0.029-0.812-.016-1.625-0.034-2.436-0.034h-0.748c-1.07,0-2.213,0-3.359.047-0.175.006-.369,0.019-0.568,0.032-0.181.013-.369,0.028-0.561,0.032-0.24-.462-0.5-0.894-0.758-1.319-0.169-.28-0.341-0.559-0.494-0.838-0.565-1.019-1.127-2.075-1.675-3.14a129.342,129.342,0,0,1-5.567-12.569c-1.659-4.3-3.165-8.762-4.552-13.367a159.67,159.67,0,0,0,17.864,1.019,159.729,159.729,0,0,0,17.814-1.012c-1.338,4.514-2.867,9.058-4.634,13.581A118.491,118.491,0,0,1,127.547,189.271Zm13.827-3.608a54.093,54.093,0,0,0-6.875.457c1.029-2.277,2.071-4.759,3.195-7.633,0.836-2.142,1.607-4.284,2.345-6.426a50.427,50.427,0,0,0,11.531,5.525c0.139,2.092.372,4.09,0.621,5.889,0.137,1.015.291,2.07,0.456,3.14A69.966,69.966,0,0,0,141.374,185.663Zm31.4-3.087a97.436,97.436,0,0,1-3.323,16.372H160.31a106.983,106.983,0,0,1-3.3-16.131,58.419,58.419,0,0,1-.674-10.3c0.059-1.432.2-2.877,0.4-4.32A39.155,39.155,0,0,0,173,168.162c0.175,1.348.307,2.7,0.363,4.071A65.6,65.6,0,0,1,172.77,182.576Z"/>
          <path id="_Compound_Path_2" data-name="&lt;Compound Path&gt;" class="cls-5" d="M119.967,116.806h0A20.724,20.724,0,1,0,99.242,96.079a20.749,20.749,0,0,0,20.728,20.727Zm0-36.58a15.854,15.854,0,0,1,0,31.709h0A15.854,15.854,0,1,1,119.968,80.226Z"/>
          <path id="_Path_4" data-name="&lt;Path&gt;" class="cls-2" d="M119.968,109.01a12.928,12.928,0,1,0-12.927-12.931A12.928,12.928,0,0,0,119.968,109.01Z"/>
          <path id="_Compound_Path_3" data-name="&lt;Compound Path&gt;" class="cls-5" d="M119.968,123.693a11.606,11.606,0,1,0,11.605,11.6A11.615,11.615,0,0,0,119.968,123.693Zm0,19.962a8.358,8.358,0,1,1,8.358-8.358A8.368,8.368,0,0,1,119.968,143.655Z"/>
          <path id="_Path_5" data-name="&lt;Path&gt;" class="cls-2" d="M119.968,128.239a7.057,7.057,0,1,0,7.056,7.058A7.058,7.058,0,0,0,119.968,128.239Z"/>
        </g>
      </g>
    </g>
  </g>
</svg>
