<svg id="app-logo" xmlns="http://www.w3.org/2000/svg" width="780" height="214" viewBox="0 0 780 214">
  <defs>
    <style>
      .cls-1 {
        fill: #111;
      }

      .cls-1, .cls-2, .cls-3 {
        fill-rule: evenodd;
      }

      .cls-2 {
        fill: #39c;
      }

      .cls-3 {
        fill: #cc7f33;
      }
    </style>
  </defs>
  <path id="Logo" class="cls-1" d="M773.9,398.4a2.581,2.581,0,0,0-2.4-2.4H749.1a2.581,2.581,0,0,0-2.4,2.4V513.6a2.581,2.581,0,0,0,2.4,2.4h84a3.4,3.4,0,0,0,2.8-2.8V496a3.4,3.4,0,0,0-2.8-2.8H773.9V398.4ZM908.1,394c-36,0-66.2,25-66.2,62,0,37.6,30.2,62,66.2,62s66.2-24.4,66.2-62C974.3,419,944.1,394,908.1,394Zm0,22.8c21.2,0,39,15,39,39.2s-17.8,39.2-39,39.2-39-15-39-39.2S886.9,416.8,908.1,416.8ZM1119.7,452h-72a3.4,3.4,0,0,0-2.8,2.8V470a3.4,3.4,0,0,0,2.8,2.8h44.2c-0.8,11.6-13.8,22.4-35.4,22.4-20.6,0-39-13.8-39-39.2,0-23,17.2-39.2,39-39.2,20.8,0,30.2,11.4,32.4,21a2.77,2.77,0,0,0,3,2h20.6c2.4,0,3.2-1.4,3.2-2.6-0.4-17.8-17.8-43.2-59.2-43.2-37.4,0-66.2,25.4-66.2,62,0,38,30,62,66.2,62,41.4,0,63.2-25.2,63.2-56V452Zm82.2-58c-36,0-66.2,25-66.2,62,0,37.6,30.2,62,66.2,62s66.2-24.4,66.2-62C1268.1,419,1237.9,394,1201.9,394Zm0,22.8c21.2,0,39,15,39,39.2s-17.8,39.2-39,39.2-39-15-39-39.2S1180.7,416.8,1201.9,416.8Z" transform="translate(-493.045 -349)"/>
  <g id="icon">
    <path id="round" class="cls-2" d="M600,558A102,102,0,1,1,702,456,102,102,0,0,1,600,558Zm0-192a90,90,0,1,0,90,90A90,90,0,0,0,600,366Z" transform="translate(-493.045 -349)"/>
    <g id="coffee-cup">
      <path id="coffee" class="cls-2" d="M630,488V452H570v36H558V464a12,12,0,0,0-12,12v30a6,6,0,0,1-12,0V476h0a24,24,0,0,1,24-24v-6a6,6,0,0,1,6-6h72a6,6,0,0,1,6,6v42H630Zm-1.757-72.757a6,6,0,0,0,0,8.485,6,6,0,0,1-8.486,8.485h0a18,18,0,0,1,0-25.456,6,6,0,0,0,0-8.485,6,6,0,0,1,8.486-8.485A18,18,0,0,1,628.243,415.243Zm-24,0a6,6,0,0,0,0,8.485,6,6,0,0,1-8.486,8.485h0a18,18,0,0,1,0-25.456,6,6,0,0,0,0-8.485,6,6,0,0,1,8.486-8.485h0A18,18,0,0,1,604.243,415.243Zm-24,0a6,6,0,0,0,0,8.485,6,6,0,0,1-8.486,8.485h0a18,18,0,0,1,0-25.456,6,6,0,0,0,0-8.485,6,6,0,0,1,8.486-8.485A18,18,0,0,1,580.243,415.243Z" transform="translate(-493.045 -349)"/>
      <path id="coffee-base" class="cls-3" d="M618,524H582a24,24,0,0,1-24-24V488h84v12A24,24,0,0,1,618,524Z" transform="translate(-493.045 -349)"/>
    </g>
  </g>
</svg>
