<svg xmlns="http://www.w3.org/2000/svg" xmlns:xlink="http://www.w3.org/1999/xlink" width="300.43" height="255.6" viewBox="0 0 300.43 255.6">
	<g>
		<path fill-rule="evenodd" clip-rule="evenodd" fill="#004EA1" d="M218.9,216.7c49.5-49.4,49.5-130.1,0-179.6c-49.4-49.5-130.1-49.5-179.6,0s-49.5,130.1,0,179.6
			C88.7,266.1,169.4,266.1,218.9,216.7L218.9,216.7z"/>
		<path fill="#8EC21F" d="M201.4,107.3C181.8,215.2,61.8,230.1,17.5,158.1c-8.5-13.8-16-36-13.3-58.5c0,0-20.9,59.6,30.1,112.1
			c90.7,93.2,212.3,22.5,233.4-65.8l32.7,19.8l-42.7-129l-87.2,51.1L201.4,107.3L201.4,107.3z"/>
		<path fill-rule="evenodd" clip-rule="evenodd" fill="#FFFFFF" d="M73.6,71.7c15.4-15.5,35.1-23.6,59.2-24.4c24.4,0.6,44.4,8.7,60,24.3c22.3,22.3,29.3,50.3,21,84.1
			c-4.6,13.9-11.1,25.1-19.7,33.7l-3.3,3.3c-13.9,13.9-29.7,21.2-47.4,22.1l30.9,30.9c-12.1,4.6-24.6,7.2-37.4,8l-59.4-59.4
			c-30-30-36.1-64.3-18.2-103C61.7,86.5,66.5,79.9,73.6,71.7L73.6,71.7L73.6,71.7z M95.6,166.2l2.1,2.1
			c13.6,13.6,30.9,17.6,51.8,11.9c7.2-2.3,13.4-6.1,18.9-11.6l2.4-2.4c14.2-14.2,17.8-32.5,10.5-54.8c-2.9-6.3-6.5-11.6-10.9-15.9
			l-2.1-2.1c-11.4-11.4-26.2-15.7-44.6-13.2c-10.4,2-19.5,6.9-27.4,14.8c-15.4,15.4-18.6,35-9.5,58.6
			C89.5,158.8,92.5,163,95.6,166.2L95.6,166.2z"/>
		<path fill-rule="evenodd" clip-rule="evenodd" fill="#8EC21F" d="M170.5,95.5l-2.1-2.1C157,82,142.2,77.7,123.8,80.2c-10.4,2-19.5,6.9-27.4,14.8c-15.4,15.4-18.6,35-9.5,58.6
			c2.6,5.1,5.6,9.3,8.7,12.5l2.1,2.1c13.6,13.6,30.9,17.6,51.8,11.9c7.2-2.3,13.4-6.1,18.9-11.6l2.4-2.4
			c14.2-14.2,17.8-32.5,10.5-54.8C178.5,105.2,174.9,99.9,170.5,95.5L170.5,95.5z"/>
	</g>
</svg>
