<?xml version="1.0" encoding="utf-8"?>
<!-- Generator: Adobe Illustrator 27.0.0, SVG Export Plug-In . SVG Version: 6.00 Build 0)  -->
<svg version="1.1" id="a" xmlns="http://www.w3.org/2000/svg" xmlns:xlink="http://www.w3.org/1999/xlink" x="0px" y="0px"
	 viewBox="0 0 1056.6 255.6" style="enable-background:new 0 0 1056.6 255.6;" xml:space="preserve">
<style type="text/css">
	.st0{fill:#004EA1;}
	.st1{fill-rule:evenodd;clip-rule:evenodd;fill:#004EA1;}
	.st2{fill:#8EC21F;}
	.st3{fill-rule:evenodd;clip-rule:evenodd;fill:#FFFFFF;}
	.st4{fill-rule:evenodd;clip-rule:evenodd;fill:#8EC21F;}
</style>
<g>
	<g>
		<path class="st0" d="M307.5,215.1V101.7h52.9c5.7,0,10.9,1.1,15.7,3.2c4.8,2.1,8.9,4.9,12.3,8.4s6.1,7.4,8.1,11.8
			s2.9,8.9,2.9,13.5s-0.9,9.4-2.8,13.8s-4.4,8.4-7.7,11.8s-7.3,6.2-12,8.3s-9.9,3.1-15.5,3.1h-34.1v39.5L307.5,215.1L307.5,215.1z
			 M327.3,159.8h32.8c2.8,0,5.4-0.5,7.7-1.6c2.3-1.1,4.3-2.6,6-4.5s3-4.1,3.9-6.7c1-2.6,1.4-5.4,1.4-8.5s-0.5-6.1-1.6-8.6
			s-2.5-4.8-4.4-6.6c-1.9-1.9-4-3.3-6.5-4.3c-2.4-1-4.9-1.5-7.5-1.5h-31.8V159.8L327.3,159.8z"/>
		<path class="st0" d="M435.8,216.7c-4.5,0-8.7-0.7-12.5-2c-3.9-1.3-7.2-3.2-9.9-5.5s-5-5.1-6.6-8.3s-2.4-6.6-2.4-10.4
			c0-3.9,1-7.5,2.8-10.7c1.9-3.2,4.6-6,8.1-8.3s7.6-4.1,12.4-5.4s10.1-1.9,15.9-1.9c4.4,0,8.7,0.4,13,1c4.3,0.7,8.1,1.6,11.5,2.8
			v-5.8c0-6.2-2-11-5.9-14.5s-9.5-5.2-16.9-5.2c-5,0-9.9,0.8-14.6,2.5s-9.7,4-14.8,7.1l-6-11.2c12-7.2,24.4-10.9,37.3-10.9
			s22.7,2.9,29.8,8.8s10.6,14.3,10.6,25.2v30.2c0,3.7,1.7,5.6,5.1,5.8v15c-1.9,0.3-3.5,0.5-4.9,0.6s-2.7,0.2-4,0.2
			c-3.8,0-6.7-0.9-8.8-2.6c-2.1-1.7-3.3-3.9-3.8-6.6l-0.5-5.3c-4.1,4.9-9.3,8.6-15.4,11.3C449.3,215.4,442.8,216.7,435.8,216.7
			L435.8,216.7z M441.1,203.7c4.7,0,9.2-0.8,13.4-2.3c4.2-1.5,7.5-3.7,9.9-6.5c2.5-1.9,3.7-3.9,3.7-6.1v-11
			c-3.3-1.2-6.8-2.1-10.6-2.7s-7.4-1-10.9-1c-7,0-12.7,1.4-17.1,4.1c-4.4,2.7-6.7,6.3-6.7,10.8c0,4.1,1.7,7.6,5.1,10.5
			C431.4,202.3,435.8,203.7,441.1,203.7L441.1,203.7z"/>
		<path class="st0" d="M510,234.7c1.8,0.3,3.5,0.6,5.2,0.8s3.1,0.3,4.2,0.3c1.5,0,2.9-0.3,4-0.9c1.1-0.6,2.3-1.6,3.5-3.1
			s2.4-3.6,3.6-6.3s2.7-6.2,4.3-10.5l-38.2-83.5h20.1l28.8,68.1l25.6-68.1h18.5l-42.1,102.9c-1.9,4.8-5.2,8.8-9.8,12.1
			c-4.7,3.2-10.7,4.9-18,4.9c-1.4,0-2.9-0.1-4.4-0.2s-3.3-0.5-5.1-1L510,234.7L510,234.7z"/>
		<path class="st0" d="M676.5,128.3c-1.2-1.2-2.9-2.4-5.2-3.8s-4.9-2.6-7.9-3.8s-6.3-2.1-9.9-2.9c-3.6-0.7-7.3-1.1-11.1-1.1
			c-8.4,0-14.6,1.4-18.5,4.2c-4,2.8-6,6.6-6,11.5c0,2.8,0.6,5,1.9,6.8s3.2,3.3,5.8,4.6s5.9,2.5,9.8,3.5s8.5,2.1,13.7,3.3
			c6.4,1.4,12.2,2.9,17.3,4.6c5.2,1.7,9.5,3.8,13,6.2s6.3,5.5,8.2,9c2,3.6,2.9,7.9,2.9,13c0,5.8-1.2,10.7-3.6,14.9
			c-2.4,4.1-5.7,7.5-9.9,10.1s-9.1,4.5-14.6,5.8s-11.5,1.8-17.9,1.8c-9.6,0-18.8-1.3-27.8-3.9s-17-6.4-24.2-11.4l9-15.3
			c1.5,1.4,3.8,2.9,6.7,4.6c2.9,1.7,6.3,3.3,10.1,4.7s8,2.7,12.5,3.7s9.2,1.5,14,1.5c7.8,0,13.8-1.2,18.1-3.7
			c4.3-2.4,6.4-6.1,6.4-10.9c0-2.9-0.8-5.3-2.4-7.2c-1.6-1.9-3.9-3.6-6.8-5c-3-1.4-6.6-2.7-10.8-3.9s-9.1-2.4-14.5-3.7
			c-6.3-1.5-11.8-3.1-16.4-4.7c-4.7-1.6-8.5-3.6-11.6-6c-3.1-2.3-5.4-5.1-7-8.2c-1.6-3.1-2.4-6.9-2.4-11.4c0-5.5,1.2-10.5,3.5-14.8
			c2.4-4.3,5.6-7.9,9.7-10.9c4.1-2.9,8.9-5.1,14.5-6.6s11.6-2.2,18.1-2.2c8.5,0,16.4,1.2,23.6,3.7c7.2,2.4,13.5,5.5,19,9.1
			L676.5,128.3L676.5,128.3z"/>
		<path class="st0" d="M755.1,210.8c-2.5,1.1-5.9,2.3-10.3,3.6c-4.4,1.3-9,2-14,2c-3.1,0-6-0.4-8.7-1.1c-2.7-0.7-5.1-1.9-7.2-3.4
			s-3.7-3.4-4.9-5.8c-1.2-2.4-1.8-5.3-1.8-8.7v-52.2H696v-13.6h12.2V104h19.5v27.5H748v13.6h-20.2v46.6c0.2,3,1.3,5.1,3.1,6.5
			c1.8,1.3,4.1,2,6.8,2s5.3-0.4,7.8-1.3c2.5-0.9,4.3-1.5,5.5-2.1L755.1,210.8L755.1,210.8z"/>
		<path class="st0" d="M788.8,216.7c-4.5,0-8.7-0.7-12.5-2s-7.2-3.2-9.9-5.5s-5-5.1-6.6-8.3s-2.4-6.6-2.4-10.4c0-3.9,1-7.5,2.8-10.7
			s4.6-6,8.1-8.3s7.6-4.1,12.4-5.4s10.1-1.9,15.9-1.9c4.4,0,8.7,0.4,13,1c4.3,0.7,8.1,1.6,11.5,2.8v-5.8c0-6.2-2-11-5.9-14.5
			s-9.5-5.2-16.9-5.2c-5,0-9.8,0.8-14.6,2.5c-4.8,1.6-9.7,4-14.8,7.1l-6-11.2c12-7.2,24.4-10.9,37.3-10.9s22.7,2.9,29.8,8.8
			c7.1,5.9,10.7,14.3,10.7,25.2v30.2c0,3.7,1.7,5.6,5.2,5.8v15c-1.9,0.3-3.5,0.5-4.9,0.6s-2.7,0.2-4,0.2c-3.8,0-6.7-0.9-8.8-2.6
			c-2.1-1.7-3.3-3.9-3.8-6.6l-0.5-5.3c-4.1,4.9-9.3,8.6-15.3,11.3C802.3,215.4,795.8,216.7,788.8,216.7L788.8,216.7z M794.1,203.7
			c4.7,0,9.2-0.8,13.4-2.3s7.5-3.7,9.8-6.5c2.5-1.9,3.7-3.9,3.7-6.1v-11c-3.3-1.2-6.8-2.1-10.6-2.7s-7.4-1-10.9-1
			c-7,0-12.7,1.4-17.1,4.1c-4.4,2.7-6.7,6.3-6.7,10.8c0,4.1,1.7,7.6,5.2,10.5C784.4,202.3,788.8,203.7,794.1,203.7L794.1,203.7z"/>
		<path class="st0" d="M896.5,215.9c-6.3,0-12-1.1-17.2-3.4c-5.2-2.3-9.7-5.4-13.4-9.3c-3.7-3.9-6.6-8.5-8.7-13.6
			s-3.1-10.5-3.1-16.1c0-6,1.1-11.6,3.2-16.9s5.1-9.9,8.9-13.7c3.8-3.9,8.3-7,13.6-9.3s11.1-3.4,17.5-3.4c7.5,0,14,1.6,19.6,4.8
			s10.3,7.4,13.9,12.5v-15.8H948v81.1c0,6.1-1.2,11.4-3.7,16.1c-2.5,4.7-6,8.6-10.4,11.9c-4.4,3.2-9.7,5.7-15.7,7.4
			s-12.5,2.6-19.5,2.6c-10.3,0-18.8-1.6-25.7-4.7s-12.5-7.5-17.1-13.2l11-9.3c3.5,4.5,8.1,7.9,13.8,10.2s11.6,3.5,18,3.5
			c4,0,7.8-0.5,11.5-1.4s6.8-2.4,9.5-4.5c2.7-2,4.9-4.6,6.5-7.7s2.4-6.8,2.4-11v-12.8c-3.3,5.1-7.9,9.1-13.7,11.8
			S902.9,215.9,896.5,215.9L896.5,215.9z M902.9,201.6c3,0,5.8-0.4,8.5-1.4c2.7-0.9,5.2-2.1,7.5-3.7c2.3-1.5,4.3-3.3,6-5.3
			s2.8-4.1,3.5-6.3V163c-1.2-2.7-2.7-5.1-4.6-7.3c-1.9-2.2-4-4.1-6.5-5.7c-2.4-1.6-5-2.9-7.7-3.8s-5.4-1.4-8.2-1.4
			c-4.3,0-8.1,0.8-11.5,2.5s-6.2,3.8-8.6,6.6s-4.2,5.8-5.5,9.2s-2,6.9-2,10.5c0,3.8,0.7,7.4,2.2,10.8s3.5,6.3,6.1,8.8s5.7,4.5,9.1,6
			S898.8,201.6,902.9,201.6L902.9,201.6z"/>
		<path class="st0" d="M1009,216.7c-7.2,0-13.8-1.1-19.7-3.4c-5.9-2.3-11-5.4-15.2-9.3c-4.2-3.9-7.5-8.5-9.8-13.7
			s-3.5-10.8-3.5-16.6s1.2-11.4,3.5-16.7s5.6-9.9,9.8-13.9s9.3-7.1,15.2-9.4c5.9-2.3,12.5-3.4,19.9-3.4s13.8,1.2,19.6,3.5
			c5.9,2.3,10.8,5.5,15,9.3c4.1,3.9,7.3,8.4,9.5,13.6c2.2,5.2,3.3,10.6,3.3,16.2c0,1.3-0.1,2.5-0.2,3.6s-0.2,2.1-0.4,2.8h-74.4
			c0.3,3.7,1.3,7.1,2.9,10.1s3.7,5.6,6.2,7.8s5.4,3.9,8.7,5c3.2,1.2,6.7,1.8,10.2,1.8c2.6,0,5.2-0.3,7.7-0.9c2.5-0.6,4.9-1.4,7-2.6
			s4-2.5,5.7-4.1s3-3.4,3.9-5.3l16.7,4.3c-3.2,6.3-8.5,11.4-15.9,15.4C1027.5,214.7,1018.9,216.7,1009,216.7L1009,216.7z
			 M1037.3,167c-0.3-3.5-1.3-6.8-2.9-9.7c-1.6-3-3.6-5.5-6.1-7.6s-5.4-3.7-8.7-4.9s-6.8-1.8-10.5-1.8s-7.1,0.6-10.4,1.8
			c-3.3,1.2-6.1,2.8-8.6,4.9s-4.5,4.6-6,7.6s-2.5,6.2-2.8,9.7H1037.3L1037.3,167z"/>
	</g>
	<g>
		<path class="st1" d="M218.9,216.7c49.5-49.4,49.5-130.1,0-179.6c-49.4-49.5-130.1-49.5-179.6,0s-49.5,130.1,0,179.6
			C88.7,266.1,169.4,266.1,218.9,216.7L218.9,216.7z"/>
		<path class="st2" d="M201.4,107.3C181.8,215.2,61.8,230.1,17.5,158.1c-8.5-13.8-16-36-13.3-58.5c0,0-20.9,59.6,30.1,112.1
			c90.7,93.2,212.3,22.5,233.4-65.8l32.7,19.8l-42.7-129l-87.2,51.1L201.4,107.3L201.4,107.3z"/>
		<path class="st3" d="M73.6,71.7c15.4-15.5,35.1-23.6,59.2-24.4c24.4,0.6,44.4,8.7,60,24.3c22.3,22.3,29.3,50.3,21,84.1
			c-4.6,13.9-11.1,25.1-19.7,33.7l-3.3,3.3c-13.9,13.9-29.7,21.2-47.4,22.1l30.9,30.9c-12.1,4.6-24.6,7.2-37.4,8l-59.4-59.4
			c-30-30-36.1-64.3-18.2-103C61.7,86.5,66.5,79.9,73.6,71.7L73.6,71.7L73.6,71.7z M95.6,166.2l2.1,2.1
			c13.6,13.6,30.9,17.6,51.8,11.9c7.2-2.3,13.4-6.1,18.9-11.6l2.4-2.4c14.2-14.2,17.8-32.5,10.5-54.8c-2.9-6.3-6.5-11.6-10.9-15.9
			l-2.1-2.1c-11.4-11.4-26.2-15.7-44.6-13.2c-10.4,2-19.5,6.9-27.4,14.8c-15.4,15.4-18.6,35-9.5,58.6
			C89.5,158.8,92.5,163,95.6,166.2L95.6,166.2z"/>
		<path class="st4" d="M170.5,95.5l-2.1-2.1C157,82,142.2,77.7,123.8,80.2c-10.4,2-19.5,6.9-27.4,14.8c-15.4,15.4-18.6,35-9.5,58.6
			c2.6,5.1,5.6,9.3,8.7,12.5l2.1,2.1c13.6,13.6,30.9,17.6,51.8,11.9c7.2-2.3,13.4-6.1,18.9-11.6l2.4-2.4
			c14.2-14.2,17.8-32.5,10.5-54.8C178.5,105.2,174.9,99.9,170.5,95.5L170.5,95.5z"/>
	</g>
</g>
</svg>
