<svg id="i-bank" xmlns="http://www.w3.org/2000/svg" width="64" height="64" viewBox="0 0 64 64">
  <defs>
    <style>
      .cls-1 {
        fill: #5e5f60;
      }

      .cls-1, .cls-2, .cls-3 {
        fill-rule: evenodd;
      }

      .cls-2 {
        fill: #f4f9e9;
      }

      .cls-3 {
        fill: #91c024;
      }
    </style>
  </defs>
  <path id="column-base-bg" class="cls-1" d="M1149,268v-4h62v4h-62Zm4-11h54v4h-54v-4Zm47-28h4v25h-4V229Zm-12,0h4v25h-4V229Zm-20,0h4v25h-4V229Zm-12,0h4v25h-4V229Z" transform="translate(-1148 -205)"/>
  <path id="column-base" class="cls-1" d="M1211,269h-62a1,1,0,0,1-1-1v-4a1,1,0,0,1,1-1h62a1,1,0,0,1,1,1v4A1,1,0,0,1,1211,269Zm-1-4h-60v2h60v-2Zm-3-3h-54a1,1,0,0,1-1-1v-4a1,1,0,0,1,1-1h54a1,1,0,0,1,1,1v4A1,1,0,0,1,1207,262Zm-1-4h-52v2h52v-2Zm-1-3h-6a1,1,0,0,1-1-1v-2a1,1,0,0,1,1-1V232a1,1,0,0,1-1-1v-2a1,1,0,0,1,1-1h6a1,1,0,0,1,1,1v2a1,1,0,0,1-1,1v19a1,1,0,0,1,1,1v2A1,1,0,0,1,1205,255Zm-2-24a1,1,0,0,0-2,0v21a1,1,0,0,0,2,0V231Zm-10,24h-6a1,1,0,0,1-1-1v-2a1,1,0,0,1,1-1V232a1,1,0,0,1-1-1v-2a1,1,0,0,1,1-1h6a1,1,0,0,1,1,1v2a1,1,0,0,1-1,1v19a1,1,0,0,1,1,1v2A1,1,0,0,1,1193,255Zm-2-24a1,1,0,0,0-2,0v21a1,1,0,0,0,2,0V231Zm-18,24h-6a1,1,0,0,1-1-1v-2a1,1,0,0,1,1-1V232a1,1,0,0,1-1-1v-2a1,1,0,0,1,1-1h6a1,1,0,0,1,1,1v2a1,1,0,0,1-1,1v19a1,1,0,0,1,1,1v2A1,1,0,0,1,1173,255Zm-2-24a1,1,0,0,0-2,0v21a1,1,0,0,0,2,0V231Zm-10,24h-6a1,1,0,0,1-1-1v-2a1,1,0,0,1,1-1V232a1,1,0,0,1-1-1v-2a1,1,0,0,1,1-1h6a1,1,0,0,1,1,1v2a1,1,0,0,1-1,1v19a1,1,0,0,1,1,1v2A1,1,0,0,1,1161,255Zm-2-24a1,1,0,0,0-2,0v21a1,1,0,0,0,2,0V231Z" transform="translate(-1148 -205)"/>
  <path id="roof-bg" class="cls-2" d="M1180,206l31,17h-62Z" transform="translate(-1148 -205)"/>
  <path id="roof" class="cls-3" d="M1212,223a1,1,0,0,1-1,1h-62a1,1,0,0,1-1-1,0.989,0.989,0,0,1,.53-0.864l-0.01-.013,31-17,0.01,0.013a0.88,0.88,0,0,1,.94,0l0.01-.013,31,17-0.01.013A0.989,0.989,0,0,1,1212,223Zm-32-15.86L1152.9,222h54.2Zm0,2.86a5,5,0,1,1-5,5A5,5,0,0,1,1180,210Zm-29,15h58a1,1,0,0,1,0,2h-58A1,1,0,0,1,1151,225Z" transform="translate(-1148 -205)"/>
</svg>
