<svg id="i-customers" xmlns="http://www.w3.org/2000/svg" width="24" height="24" viewBox="0 0 24 24">
  <defs>
    <style>
      .cls-1, .cls-2 {
        fill: #91c024;
      }

      .cls-1, .cls-2, .cls-3, .cls-4 {
        fill-rule: evenodd;
      }

      .cls-1, .cls-3 {
        opacity: 0.1;
      }

      .cls-3 {
        fill: #004ea1;
      }

      .cls-4 {
        fill: #5e5f60;
      }
    </style>
  </defs>
  <path id="account-back-bg" class="cls-1" d="M53,396a4.98,4.98,0,0,0-.855-2.8A4,4,0,0,1,59,396H53Zm2-7a2,2,0,1,1,2-2A2,2,0,0,1,55,389Zm-12,7H37a4,4,0,0,1,6.855-2.8A4.98,4.98,0,0,0,43,396Zm-2-7a2,2,0,1,1,2-2A2,2,0,0,1,41,389Z" transform="translate(-36 -378.5)"/>
  <path id="account-back" class="cls-2" d="M55,390a3,3,0,1,1,3-3A3,3,0,0,1,55,390Zm0-4a1,1,0,1,0,1,1A1,1,0,0,0,55,386Zm-14,4a3,3,0,1,1,3-3A3,3,0,0,1,41,390Zm0-4a1,1,0,1,0,1,1A1,1,0,0,0,41,386Zm0,5a4.978,4.978,0,0,1,3.5,1.435,5,5,0,0,0-1.142,1.731,2.977,2.977,0,0,0-5.174.834H43.1a5.025,5.025,0,0,0-.1,1v1H37a1,1,0,0,1-1-1A5,5,0,0,1,41,391Zm11.9,4h4.917a2.977,2.977,0,0,0-5.174-.834,5,5,0,0,0-1.142-1.731A5,5,0,0,1,60,396a1,1,0,0,1-1,1H53v-1A5.025,5.025,0,0,0,52.9,395Z" transform="translate(-36 -378.5)"/>
  <path id="account-fore-bg" class="cls-3" d="M43,397v-1a5,5,0,0,1,10,0v1H43Zm5-9a2,2,0,1,1,2-2A2,2,0,0,1,48,388Z" transform="translate(-36 -378.5)"/>
  <path id="account-fore" class="cls-4" d="M53,398H43a1,1,0,0,1-1-1v-2a5,5,0,0,1,5-5h2a5,5,0,0,1,5,5v2A1,1,0,0,1,53,398Zm-4-6H47a3,3,0,0,0-3,3v1h8v-1A3,3,0,0,0,49,392Zm-1-3a3,3,0,1,1,3-3A3,3,0,0,1,48,389Zm0-4a1,1,0,1,0,1,1A1,1,0,0,0,48,385Z" transform="translate(-36 -378.5)"/>
</svg>
