<svg id="i-deposit" xmlns="http://www.w3.org/2000/svg" width="64" height="64" viewBox="0 0 64 64">
  <defs>
    <style>
      .cls-1, .cls-2 {
        fill: #5e5f60;
      }

      .cls-1, .cls-2, .cls-4 {
        fill-rule: evenodd;
      }

      .cls-2 {
        opacity: 0.35;
      }

      .cls-3 {
        fill: #f4f9e9;
      }

      .cls-4 {
        fill: #91c024;
      }
    </style>
  </defs>
  <path id="credit-card" class="cls-1" d="M1202,255h-44a6,6,0,0,1-6-6V225a6,6,0,0,1,6-6h44a6,6,0,0,1,6,6v24A6,6,0,0,1,1202,255Zm4-30a4,4,0,0,0-4-4h-44a4,4,0,0,0-4,4v3h52v-3Zm0,5h-52v19a4,4,0,0,0,4,4h44a4,4,0,0,0,4-4V230Zm-20,19h-4a1,1,0,0,1,0-2h4A1,1,0,0,1,1186,249Zm-8,0h-4a1,1,0,0,1,0-2h4A1,1,0,0,1,1178,249Zm-8,0h-4a1,1,0,0,1,0-2h4A1,1,0,0,1,1170,249Zm-8,0h-4a1,1,0,0,1,0-2h4A1,1,0,0,1,1162,249Z" transform="translate(-1148 -206)"/>
  <path id="card-details-01" class="cls-2" d="M1158,222h44a3,3,0,0,1,3,3v2h-50v-2A3,3,0,0,1,1158,222Zm0,20h14a1,1,0,0,1,0,2h-14A1,1,0,0,1,1158,242Z" transform="translate(-1148 -206)"/>
  <circle id="arrow-bg" class="cls-3" cx="44" cy="39" r="11"/>
  <path id="arrow" class="cls-4" d="M1192,233a12,12,0,1,0,12,12A12,12,0,0,0,1192,233Zm0,22a10,10,0,1,1,10-10A10,10,0,0,1,1192,255Zm4-10a1,1,0,0,0-.71.293h0l-2.29,2.293V240a1,1,0,0,0-2,0v7.586l-2.29-2.293h0a1,1,0,0,0-1.42,1.414h0l4,4h0a1.007,1.007,0,0,0,1.42,0h0l4-4h0A1,1,0,0,0,1196,245Z" transform="translate(-1148 -206)"/>
</svg>
