<svg id="i-exchange-rate" xmlns="http://www.w3.org/2000/svg" width="24" height="24" viewBox="0 0 24 24">
  <defs>
    <style>
      .cls-1, .cls-2 {
        fill: #91c024;
      }

      .cls-1, .cls-2, .cls-3, .cls-4 {
        fill-rule: evenodd;
      }

      .cls-1, .cls-3 {
        opacity: 0.1;
      }

      .cls-3 {
        fill: #004ea1;
      }

      .cls-4 {
        fill: #5e5f60;
      }
    </style>
  </defs>
  <path id="arrow-left-bg" class="cls-1" d="M39,679.085h2c0,10.213,18,11.234,18-1.021,0,10.213-14,8.17-14,1.021h2L43,675Z" transform="translate(-36 -665)"/>
  <path id="arrow-left" class="cls-2" d="M38.293,678.293h0l4-4h0a1,1,0,0,1,1.414,0h0l4,4h0A1,1,0,0,1,47,680H46.392A5.971,5.971,0,0,0,58,678a1,1,0,0,1,2,0,8.131,8.131,0,0,1-.041.818A9.986,9.986,0,0,1,40.219,680H39A1,1,0,0,1,38.293,678.293ZM42,678a7.954,7.954,0,0,0,9,7.931A8,8,0,0,1,44,678h0.586L43,676.414,41.414,678H42Z" transform="translate(-36 -665)"/>
  <path id="arrow-right-bg" class="cls-3" d="M57,675H55c0-10-18-11-18,1,0-10,14-8,14-1H49l4,4Z" transform="translate(-36 -665)"/>
  <path id="arrow-right" class="cls-4" d="M57.707,675.707h0l-4,4h0a1,1,0,0,1-1.414,0h0l-4-4h0A1,1,0,0,1,49,674h0.608A5.971,5.971,0,0,0,38,676a1,1,0,0,1-2,0,8.131,8.131,0,0,1,.041-0.818A9.986,9.986,0,0,1,55.781,674H57A1,1,0,0,1,57.707,675.707ZM54,676a7.954,7.954,0,0,0-9-7.931A8,8,0,0,1,52,676H51.414L53,677.586,54.586,676H54Z" transform="translate(-36 -665)"/>
</svg>
