<svg id="i-merchant" xmlns="http://www.w3.org/2000/svg" width="24" height="24" viewBox="0 0 24 24">
  <defs>
    <style>
      .cls-1 {
        fill: #004ea1;
      }

      .cls-1, .cls-3 {
        opacity: 0.1;
      }

      .cls-2 {
        fill: #5e5f60;
      }

      .cls-2, .cls-3, .cls-4 {
        fill-rule: evenodd;
      }

      .cls-3, .cls-4 {
        fill: #91c024;
      }
    </style>
  </defs>
  <rect id="base-bg" class="cls-1" x="3" y="10" width="18" height="12"/>
  <path id="base" class="cls-2" d="M59,210H37a1,1,0,0,1,0-2h1V197h2v11h2v-5a3,3,0,0,1,6,0v5h8V197h2v11h1A1,1,0,1,1,59,210Zm-13-7a1,1,0,0,0-2,0v5h2v-5Z" transform="translate(-36 -187)"/>
  <path id="roof-bg" class="cls-3" d="M56,197a2,2,0,0,1-2-2,2,2,0,0,1-4,0,2,2,0,1,1-4,0,2,2,0,0,1-4,0,2,2,0,1,1-3.606-1.182L40,189H56l1.606,4.818A1.993,1.993,0,0,1,56,197Z" transform="translate(-36 -187)"/>
  <path id="roof" class="cls-4" d="M59,195a2.988,2.988,0,0,1-5,2.221,2.957,2.957,0,0,1-4,0,2.957,2.957,0,0,1-4,0,2.957,2.957,0,0,1-4,0A2.988,2.988,0,0,1,37,195a0.974,0.974,0,0,1,.063-0.312l-0.012,0,2-6,0.012,0A0.99,0.99,0,0,1,40,188H56a0.99,0.99,0,0,1,.937.688l0.012,0,2,6-0.012,0A0.971,0.971,0,0,1,59,195Zm-3.721-5H40.721l-1.7,5.1A0.992,0.992,0,0,0,41,195a1,1,0,0,1,2,0,1,1,0,0,0,2,0,1,1,0,0,1,2,0,1,1,0,1,0,2,0,1,1,0,0,1,2,0,1,1,0,0,0,2,0,1,1,0,0,1,2,0,0.992,0.992,0,0,0,1.98.1ZM53,193H43a1,1,0,0,1,0-2H53A1,1,0,0,1,53,193Z" transform="translate(-36 -187)"/>
</svg>
