<svg id="i-refund" xmlns="http://www.w3.org/2000/svg" width="24" height="24" viewBox="0 0 24 24">
  <defs>
    <style>
      .cls-1 {
        opacity: 0;
      }

      .cls-2 {
        fill-rule: evenodd;
      }

      .cls-3 {
        fill: #91c024;
      }
    </style>
  </defs>
  <rect id="Rectangle_1674_copy_2" data-name="Rectangle 1674 copy 2" class="cls-1" width="24" height="24"/>
  <path id="refresh" class="cls-2" d="M1255,245a1,1,0,0,1,0-2,8,8,0,1,0-8-8h1a1,1,0,0,1,1,1,1.015,1.015,0,0,1-.18.544l0.01,0.011-2,3-0.01-.011a0.965,0.965,0,0,1-1.64,0l-0.01.011-2-3,0.01-.011A1.015,1.015,0,0,1,1243,236a1,1,0,0,1,1-1h1A10,10,0,1,1,1255,245Z" transform="translate(-1243 -223)"/>
  <circle id="coin" class="cls-3" cx="12" cy="12" r="5"/>
</svg>
