<svg id="i-settlements" xmlns="http://www.w3.org/2000/svg" width="24" height="24" viewBox="0 0 24 24">
  <defs>
    <style>
      .cls-1 {
        opacity: 0.25;
      }

      .cls-2, .cls-4 {
        fill-rule: evenodd;
      }

      .cls-3 {
        fill: #f4f9e9;
      }

      .cls-4 {
        fill: #91c024;
      }
    </style>
  </defs>
  <rect id="paper-bg" class="cls-1" x="1" y="1" width="16" height="21" rx="2" ry="2"/>
  <path id="paper" class="cls-2" d="M1258,247h-12a3,3,0,0,1-3-3V226a3,3,0,0,1,3-3h12a3,3,0,0,1,3,3v18A3,3,0,0,1,1258,247Zm1-21a1,1,0,0,0-1-1h-12a1,1,0,0,0-1,1v18a1,1,0,0,0,1,1h12a1,1,0,0,0,1-1V226Zm-3,15h-8a1,1,0,0,1,0-2h8A1,1,0,0,1,1256,241Zm0-4h-8a1,1,0,0,1,0-2h8A1,1,0,0,1,1256,237Zm0-4h-8a1,1,0,0,1,0-2h8A1,1,0,0,1,1256,233Zm0-4h-8a1,1,0,0,1,0-2h8A1,1,0,0,1,1256,229Z" transform="translate(-1243 -223)"/>
  <circle id="stamp-bg" class="cls-3" cx="17" cy="17" r="6"/>
  <path id="stamp" class="cls-4" d="M1260,247a7,7,0,1,1,7-7A7,7,0,0,1,1260,247Zm0-12a5,5,0,1,0,5,5A5,5,0,0,0,1260,235Zm2,8h-4a1,1,0,0,1,0-2h0.72l-0.69-2.757,0.02,0A0.951,0.951,0,0,1,1258,238a1,1,0,0,1,1-1h2a1,1,0,0,1,1,1,0.951,0.951,0,0,1-.05.238l0.02,0L1261.28,241H1262A1,1,0,0,1,1262,243Z" transform="translate(-1243 -223)"/>
</svg>
