<svg id="i-search" xmlns="http://www.w3.org/2000/svg" width="24" height="24" viewBox="0 0 24 24">
  <defs>
    <style>
      .cls-1 {
        fill: #004ea1;
      }

      .cls-1, .cls-2, .cls-3, .cls-4 {
        fill-rule: evenodd;
      }

      .cls-1, .cls-3 {
        opacity: 0.1;
      }

      .cls-2 {
        fill: #5e5f60;
      }

      .cls-3, .cls-4 {
        fill: #91c024;
      }
    </style>
  </defs>
  <path class="cls-1" d="M8,15a7,7,0,1,1,7-7A7,7,0,0,1,8,15ZM10,3a1,1,0,1,0,1,1A1,1,0,0,0,10,3Z"/>
  <path class="cls-2" d="M16.707,15.293l-1.414,1.414L12.9,14.314A8.018,8.018,0,1,1,14.314,12.9ZM8,2a6,6,0,1,0,6,6A6,6,0,0,0,8,2Z"/>
  <path class="cls-3" d="M23,21a2,2,0,0,1-3.414,1.414h0l-4-4h0a2,2,0,1,1,2.828-2.828h0l4,4h0A1.994,1.994,0,0,1,23,21Z"/>
  <path class="cls-4" d="M24,21a3,3,0,0,1-5.121,2.121h0l-4-4h0a3,3,0,1,1,4.243-4.243h0l4,4h0A2.991,2.991,0,0,1,24,21Zm-2.293-.707-4-4h0a1,1,0,1,0-1.414,1.414h0l4,4h0a1,1,0,1,0,1.414-1.414h0Z"/>
</svg>
