<svg id="i-withdrawal" xmlns="http://www.w3.org/2000/svg" width="64" height="64" viewBox="0 0 64 64">
  <defs>
    <style>
      .cls-1 {
        fill: #b0b3b6;
      }

      .cls-1, .cls-2, .cls-4 {
        fill-rule: evenodd;
      }

      .cls-2 {
        fill: #5e5f60;
      }

      .cls-3 {
        fill: #f4f9e9;
      }

      .cls-4 {
        fill: #91c024;
      }
    </style>
  </defs>
  <path id="atm-details" class="cls-1" d="M1156,213h48a1,1,0,0,1,1,1v4h-50v-4A1,1,0,0,1,1156,213Zm-1,9h50v4a1,1,0,0,1-1,1h-48a1,1,0,0,1-1-1v-4Z" transform="translate(-1148 -205.5)"/>
  <path id="atm" class="cls-2" d="M1204,230h-48a4,4,0,0,1-4-4V214a4,4,0,0,1,4-4h48a4,4,0,0,1,4,4v12A4,4,0,0,1,1204,230Zm-48-2h48a2,2,0,0,0,2-2v-5h-52v5A2,2,0,0,0,1156,228Zm48-16h-48a2,2,0,0,0-2,2v5h52v-5A2,2,0,0,0,1204,212Z" transform="translate(-1148 -205.5)"/>
  <path id="cash-bg" class="cls-3" d="M19,15.5H45a0,0,0,0,1,0,0v36a3,3,0,0,1-3,3H22a3,3,0,0,1-3-3v-36A0,0,0,0,1,19,15.5Z"/>
  <path id="cash" class="cls-4" d="M1188,240a8,8,0,1,1-8-8A8,8,0,0,1,1188,240Zm2,25h-20a4,4,0,0,1-4-4V221h2v2a5.959,5.959,0,0,0,4.44-2h2.48a7.983,7.983,0,0,1-6.92,4v30a8,8,0,0,1,8,8h8a8,8,0,0,1,8-8V225a7.983,7.983,0,0,1-6.92-4h2.48a5.959,5.959,0,0,0,4.44,2v-2h2v40A4,4,0,0,1,1190,265Zm-22-8v4a2,2,0,0,0,2,2h4A6,6,0,0,0,1168,257Zm24,0a6,6,0,0,0-6,6h4a2,2,0,0,0,2-2v-4Z" transform="translate(-1148 -205.5)"/>
</svg>
