<svg id="launching-soon" xmlns="http://www.w3.org/2000/svg" width="240" height="240" viewBox="0 0 240 240">
  <defs>
    <style>
      .cls-1, .cls-6 {
        fill: #dae3ed;
      }

      .cls-1, .cls-5, .cls-7, .cls-8 {
        fill-rule: evenodd;
      }

      .cls-2 {
        fill: #c2d3e5;
      }

      .cls-3 {
        fill: #b6cae1;
      }

      .cls-4 {
        fill: #fff;
      }

      .cls-5 {
        fill: #848585;
      }

      .cls-7 {
        fill: #91c024;
      }

      .cls-8 {
        fill: #004ea1;
      }
    </style>
  </defs>
  <g id="icon-bg-abstract">
    <path id="icon-bg-abstract-2" data-name="icon-bg-abstract" class="cls-1" d="M1064,664h-48a16,16,0,0,1-16-16V600a16,16,0,0,1,16-16h48a16,16,0,0,1,16,16v48A16,16,0,0,1,1064,664Zm8-64a8,8,0,0,0-8-8h-48a8,8,0,0,0-8,8v48a8,8,0,0,0,8,8h48a8,8,0,0,0,8-8V600Zm-38-80h8a8,8,0,0,1,8,8v8a8,8,0,0,1-8,8h-8a8,8,0,0,1-8-8v-8A8,8,0,0,1,1034,520Zm-134,4a8,8,0,0,1-8,8h-8a8,8,0,0,1-8-8v-8a8,8,0,0,1,8-8h8a8,8,0,0,1,8,8v8Zm2,116a8,8,0,0,1,8,8v8a8,8,0,0,1-8,8h-8a8,8,0,0,1-8-8v-8a8,8,0,0,1,8-8h8Zm94-58H932a16,16,0,0,1-16-16V502a16,16,0,0,1,16-16h64a16,16,0,0,1,16,16v64A16,16,0,0,1,996,582ZM872,472H856a16,16,0,0,1-16-16V440a16,16,0,0,1,16-16h16a16,16,0,0,1,16,16v16A16,16,0,0,1,872,472Zm146-3h8a8,8,0,0,1,8,8v8a8,8,0,0,1-8,8h-8a8,8,0,0,1-8-8v-8A8,8,0,0,1,1018,469Z" transform="translate(-840 -424)"/>
    <path id="icon-bg-abstract_copy_2" data-name="icon-bg-abstract copy 2" class="cls-1" d="M932,544a16,16,0,0,1,16,16v32a16,16,0,0,1-16,16H900a16,16,0,0,1-16-16V560a16,16,0,0,1,16-16h32Zm-40,16v32a8,8,0,0,0,8,8h32a8,8,0,0,0,8-8V560a8,8,0,0,0-8-8H900A8,8,0,0,0,892,560Z" transform="translate(-840 -424)"/>
    <path id="icon-bg-abstract_copy" data-name="icon-bg-abstract copy" class="cls-1" d="M1000,518a16,16,0,0,1-16-16V470a16,16,0,0,1,16-16h32a16,16,0,0,1,16,16v32a16,16,0,0,1-16,16h-32Zm40-16V470a8,8,0,0,0-8-8h-32a8,8,0,0,0-8,8v32a8,8,0,0,0,8,8h32A8,8,0,0,0,1040,502Z" transform="translate(-840 -424)"/>
  </g>
  <g id="paper">
    <path id="base-bg" class="cls-2" d="M15,188H225a0,0,0,0,1,0,0v8a4,4,0,0,1-4,4H19a4,4,0,0,1-4-4v-8A0,0,0,0,1,15,188Z"/>
    <path id="mid-bg" class="cls-3" d="M15,195H225a0,0,0,0,1,0,0v1a4,4,0,0,1-4,4H19a4,4,0,0,1-4-4v-1A0,0,0,0,1,15,195Z"/>
    <rect id="front-bg" class="cls-4" x="30" y="76" width="180" height="112"/>
    <path id="front-bg-highlight" class="cls-1" d="M1050,500V612H870s93.009-6.761,136.98-34.121C1052.96,549.267,1050,500,1050,500Z" transform="translate(-840 -424)"/>
    <path id="outline" class="cls-5" d="M1061,626H885a2,2,0,0,1,0-4h176a2,2,0,0,0,2-2v-6H979.445A3.982,3.982,0,0,1,976,616H944a3.982,3.982,0,0,1-3.445-2H857v6a2,2,0,0,0,2,2h4a2,2,0,0,1,0,4h-4a6,6,0,0,1-6-6v-8a2,2,0,0,1,2-2h13V500a2,2,0,0,1,2-2h21a2,2,0,0,1,0,4H872V610h4V507a1,1,0,0,1,1-1h165a1,1,0,0,1,1,1v83a1,1,0,0,1-2,0V508H878V610h163V594a1,1,0,0,1,2,0v16h5V502h-32a2,2,0,0,1,0-4h34a2,2,0,0,1,2,2V610h13a2,2,0,0,1,2,2v8A6,6,0,0,1,1061,626Zm-53-124H906a2,2,0,0,1,0-4h102A2,2,0,0,1,1008,502Zm-110,0a2,2,0,1,1,2-2A2,2,0,0,1,898,502ZM871,622h6a2,2,0,0,1,0,4h-6A2,2,0,0,1,871,622Z" transform="translate(-840 -424)"/>
    <g>
      <circle id="Ellipse_1765_copy" data-name="Ellipse 1765 copy" class="cls-6" cx="120" cy="79" r="40"/>
      <circle class="cls-4" cx="120" cy="77" r="38"/>
      <path class="cls-5" d="M960,541a40,40,0,1,1,40-40A40,40,0,0,1,960,541Zm0-76a36,36,0,1,0,36,36A36,36,0,0,0,960,465Z" transform="translate(-840 -424)"/>
      <path id="outline_copy" data-name="outline copy" class="cls-5" d="M990,508h-6.012a24.856,24.856,0,0,1-2.068,5.02l4.227,4.228a2,2,0,0,1,0,2.828l-7.071,7.071a2,2,0,0,1-2.828,0l-4.228-4.227a24.856,24.856,0,0,1-5.02,2.068V531a2,2,0,0,1-2,2H955a2,2,0,0,1-2-2v-6.012a24.869,24.869,0,0,1-5.04-2.08l-4.239,4.239a2,2,0,0,1-2.829,0l-7.071-7.071a2,2,0,0,1,0-2.828L938.069,513a24.822,24.822,0,0,1-2.057-5H930a2,2,0,0,1-2-2V496a2,2,0,0,1,2-2h6.012a24.856,24.856,0,0,1,2.068-5.02l-4.259-4.259a2,2,0,0,1,0-2.829l7.071-7.071a2,2,0,0,1,2.829,0l4.259,4.259a24.856,24.856,0,0,1,5.02-2.068V471a2,2,0,0,1,2-2h10a2,2,0,0,1,2,2v6.012a24.822,24.822,0,0,1,5,2.057l4.247-4.248a2,2,0,0,1,2.828,0l7.071,7.071a2,2,0,0,1,0,2.829l-4.239,4.239a24.869,24.869,0,0,1,2.08,5.04H990a2,2,0,0,1,2,2v10A2,2,0,0,1,990,508Zm-2-10h-7.235a20.879,20.879,0,0,0-3.969-9.553l5.124-5.125-4.242-4.242-5.126,5.125A20.86,20.86,0,0,0,963,480.239V473h-6v7.239a20.86,20.86,0,0,0-9.552,3.966l-5.126-5.125-4.242,4.242,5.124,5.125A20.879,20.879,0,0,0,939.235,498H932v6h7.235a20.879,20.879,0,0,0,3.969,9.553l-5.124,5.125,4.242,4.242,5.126-5.125A20.86,20.86,0,0,0,957,521.761V529h6v-7.239a20.86,20.86,0,0,0,9.552-3.966l5.126,5.125,4.242-4.242-5.124-5.125A20.879,20.879,0,0,0,980.765,504H988v-6Zm-28,20a17,17,0,1,1,17-17A17,17,0,0,1,960,518Zm0-30a13,13,0,1,0,13,13A13,13,0,0,0,960,488Z" transform="translate(-840 -424)"/>
    </g>
  </g>
  <g id="sparkles">
    <path id="green" class="cls-7" d="M919.414,473.414h0l-20,20h0a2,2,0,1,1-2.828-2.828h0l20-20h0A2,2,0,1,1,919.414,473.414ZM886,491a2,2,0,0,1-2-2V459a2,2,0,0,1,4,0v30A2,2,0,0,1,886,491Zm-12,3a1.994,1.994,0,0,1-1.414-.586h0l-20-20h0a2,2,0,1,1,2.828-2.828h0l20,20h0A2,2,0,0,1,874,494Zm191,4a6,6,0,1,1-6,6A6,6,0,0,1,1065,498Zm-8,62a2,2,0,1,1-2,2A2,2,0,0,1,1057,560Z" transform="translate(-840 -424)"/>
    <path id="blue" class="cls-8" d="M858,538h-2v2a2,2,0,0,1-4,0v-2h-2a2,2,0,0,1,0-4h2v-2a2,2,0,0,1,4,0v2h2A2,2,0,0,1,858,538ZM993,640h-2v2a2,2,0,0,1-4,0v-2h-2a2,2,0,0,1,0-4h2v-2a2,2,0,0,1,4,0v2h2A2,2,0,0,1,993,640Zm54-191v-2h16v2h-16Zm0-6h16v2h-16v-2Zm0-4h16v2h-16v-2Zm-53,4a2,2,0,1,1-2,2A2,2,0,0,1,994,443Z" transform="translate(-840 -424)"/>
  </g>
</svg>
