<svg id="icon-240" xmlns="http://www.w3.org/2000/svg" width="240" height="240" viewBox="0 0 240 240">
  <defs>
    <style>
      .cls-1 {
        fill: #dae3ed;
      }

      .cls-1, .cls-3, .cls-4, .cls-5, .cls-6, .cls-7 {
        fill-rule: evenodd;
      }

      .cls-2 {
        fill: #c2d3e5;
      }

      .cls-3 {
        fill: #cfdbe9;
      }

      .cls-4 {
        fill: #b6cae1;
      }

      .cls-5 {
        fill: #848585;
      }

      .cls-6 {
        fill: #91c024;
      }

      .cls-7 {
        fill: #004ea1;
      }
    </style>
  </defs>
  <g id="icon-bg-abstract">
    <path id="icon-bg-abstract-2" data-name="icon-bg-abstract" class="cls-1" d="M1064,664h-48a16,16,0,0,1-16-16V600a16,16,0,0,1,16-16h48a16,16,0,0,1,16,16v48A16,16,0,0,1,1064,664Zm8-64a8,8,0,0,0-8-8h-48a8,8,0,0,0-8,8v48a8,8,0,0,0,8,8h48a8,8,0,0,0,8-8V600Zm-38-80h8a8,8,0,0,1,8,8v8a8,8,0,0,1-8,8h-8a8,8,0,0,1-8-8v-8A8,8,0,0,1,1034,520Zm-134,4a8,8,0,0,1-8,8h-8a8,8,0,0,1-8-8v-8a8,8,0,0,1,8-8h8a8,8,0,0,1,8,8v8Zm2,116a8,8,0,0,1,8,8v8a8,8,0,0,1-8,8h-8a8,8,0,0,1-8-8v-8a8,8,0,0,1,8-8h8Zm94-58H932a16,16,0,0,1-16-16V502a16,16,0,0,1,16-16h64a16,16,0,0,1,16,16v64A16,16,0,0,1,996,582ZM872,472H856a16,16,0,0,1-16-16V440a16,16,0,0,1,16-16h16a16,16,0,0,1,16,16v16A16,16,0,0,1,872,472Zm146-3h8a8,8,0,0,1,8,8v8a8,8,0,0,1-8,8h-8a8,8,0,0,1-8-8v-8A8,8,0,0,1,1018,469Z" transform="translate(-840 -424)"/>
    <path id="icon-bg-abstract_copy_2" data-name="icon-bg-abstract copy 2" class="cls-1" d="M932,544a16,16,0,0,1,16,16v32a16,16,0,0,1-16,16H900a16,16,0,0,1-16-16V560a16,16,0,0,1,16-16h32Zm-40,16v32a8,8,0,0,0,8,8h32a8,8,0,0,0,8-8V560a8,8,0,0,0-8-8H900A8,8,0,0,0,892,560Z" transform="translate(-840 -424)"/>
    <path id="icon-bg-abstract_copy" data-name="icon-bg-abstract copy" class="cls-1" d="M1000,518a16,16,0,0,1-16-16V470a16,16,0,0,1,16-16h32a16,16,0,0,1,16,16v32a16,16,0,0,1-16,16h-32Zm40-16V470a8,8,0,0,0-8-8h-32a8,8,0,0,0-8,8v32a8,8,0,0,0,8,8h32A8,8,0,0,0,1040,502Z" transform="translate(-840 -424)"/>
  </g>
  <g id="box">
    <rect class="cls-2" x="100" y="130" width="116" height="86"/>
    <path id="Rectangle_1708_copy_2" data-name="Rectangle 1708 copy 2" class="cls-3" d="M1001,532h77l-22,22H978Z" transform="translate(-840 -424)"/>
    <path id="Rectangle_1708_copy" data-name="Rectangle 1708 copy" class="cls-4" d="M864,640V554l-22-22h76l22,22v86H864Z" transform="translate(-840 -424)"/>
    <path class="cls-5" d="M1079.41,533.414L1058,554.828V640a2,2,0,0,1-2,2H864a2,2,0,0,1-2-2V554.828l-21.414-21.414h0A2,2,0,0,1,842,530h76a1.994,1.994,0,0,1,1.414.586h0L940.828,552H977.2l22.421-21.445,0,0A1.985,1.985,0,0,1,1001,530h77a2,2,0,0,1,2,2,1.965,1.965,0,0,1-.59,1.414h0ZM938,554.828L917.172,534H846.828l18,18H892a2,2,0,0,1,0,4H866v82h72V554.828ZM942,556v82h112V556H942Zm59.8-22-18.816,18h72.186l18-18H1001.8Zm14.58,80.506a25.994,25.994,0,0,0-36.765,0,2,2,0,0,1-2.828-2.829,30,30,0,0,1,42.423,0A2,2,0,1,1,1016.38,614.506Zm-3.36-23.615a6,6,0,1,1,6-6A6,6,0,0,1,1013.02,590.891Zm-30,0a6,6,0,1,1,6-6A6,6,0,0,1,983.016,590.891ZM842,638h14a2,2,0,0,1,0,4H842A2,2,0,0,1,842,638Zm222,0h14a2,2,0,0,1,0,4h-14A2,2,0,0,1,1064,638Z" transform="translate(-840 -424)"/>
  </g>
  <g id="sparkles">
    <path class="cls-6" d="M950,531a2,2,0,0,1-3.414,1.414h0l-20-20h0a2,2,0,1,1,2.828-2.828h0l20,20h0A1.994,1.994,0,0,1,950,531Zm10-1a2,2,0,0,1-2-2V498a2,2,0,0,1,4,0v30A2,2,0,0,1,960,530Zm33.414-17.586h0l-20,20h0a2,2,0,1,1-2.828-2.828h0l20-20h0A2,2,0,1,1,993.414,512.414ZM1052,491a6,6,0,1,1-6,6A6,6,0,0,1,1052,491ZM878,441a2,2,0,1,1-2,2A2,2,0,0,1,878,441Z" transform="translate(-840 -424)"/>
    <path class="cls-7" d="M912,484h-2v2a2,2,0,0,1-4,0v-2h-2a2,2,0,0,1,0-4h2v-2a2,2,0,0,1,4,0v2h2A2,2,0,0,1,912,484Zm110-20h-2v2a2,2,0,0,1-4,0v-2h-2a2,2,0,0,1,0-4h2v-2a2,2,0,0,1,4,0v2h2A2,2,0,0,1,1022,464Zm29-23v-2h16v2h-16Zm0-6h16v2h-16v-2Zm0-4h16v2h-16v-2ZM867,514a2,2,0,1,1-2,2A2,2,0,0,1,867,514Z" transform="translate(-840 -424)"/>
  </g>
</svg>
