<svg id="long-paper" xmlns="http://www.w3.org/2000/svg" width="240" height="240" viewBox="0 0 240 240">
  <defs>
    <style>
      .cls-1 {
        fill: #dae3ed;
      }

      .cls-1, .cls-3, .cls-4, .cls-5, .cls-6, .cls-7 {
        fill-rule: evenodd;
      }

      .cls-2 {
        fill: #c2d3e5;
      }

      .cls-3 {
        fill: #b6cae1;
      }

      .cls-4 {
        fill: #cfdbe9;
      }

      .cls-5 {
        fill: #848585;
      }

      .cls-6 {
        fill: #91c024;
      }

      .cls-7 {
        fill: #004ea1;
      }
    </style>
  </defs>
  <g id="icon-bg-abstract">
    <path id="icon-bg-abstract-2" data-name="icon-bg-abstract" class="cls-1" d="M1064,664h-48a16,16,0,0,1-16-16V600a16,16,0,0,1,16-16h48a16,16,0,0,1,16,16v48A16,16,0,0,1,1064,664Zm8-64a8,8,0,0,0-8-8h-48a8,8,0,0,0-8,8v48a8,8,0,0,0,8,8h48a8,8,0,0,0,8-8V600Zm-38-80h8a8,8,0,0,1,8,8v8a8,8,0,0,1-8,8h-8a8,8,0,0,1-8-8v-8A8,8,0,0,1,1034,520Zm-134,4a8,8,0,0,1-8,8h-8a8,8,0,0,1-8-8v-8a8,8,0,0,1,8-8h8a8,8,0,0,1,8,8v8Zm2,116a8,8,0,0,1,8,8v8a8,8,0,0,1-8,8h-8a8,8,0,0,1-8-8v-8a8,8,0,0,1,8-8h8Zm94-58H932a16,16,0,0,1-16-16V502a16,16,0,0,1,16-16h64a16,16,0,0,1,16,16v64A16,16,0,0,1,996,582ZM872,472H856a16,16,0,0,1-16-16V440a16,16,0,0,1,16-16h16a16,16,0,0,1,16,16v16A16,16,0,0,1,872,472Zm146-3h8a8,8,0,0,1,8,8v8a8,8,0,0,1-8,8h-8a8,8,0,0,1-8-8v-8A8,8,0,0,1,1018,469Z" transform="translate(-840 -424)"/>
    <path id="icon-bg-abstract_copy_2" data-name="icon-bg-abstract copy 2" class="cls-1" d="M932,544a16,16,0,0,1,16,16v32a16,16,0,0,1-16,16H900a16,16,0,0,1-16-16V560a16,16,0,0,1,16-16h32Zm-40,16v32a8,8,0,0,0,8,8h32a8,8,0,0,0,8-8V560a8,8,0,0,0-8-8H900A8,8,0,0,0,892,560Z" transform="translate(-840 -424)"/>
    <path id="icon-bg-abstract_copy" data-name="icon-bg-abstract copy" class="cls-1" d="M1000,518a16,16,0,0,1-16-16V470a16,16,0,0,1,16-16h32a16,16,0,0,1,16,16v32a16,16,0,0,1-16,16h-32Zm40-16V470a8,8,0,0,0-8-8h-32a8,8,0,0,0-8,8v32a8,8,0,0,0,8,8h32A8,8,0,0,0,1040,502Z" transform="translate(-840 -424)"/>
  </g>
  <g id="paper">
    <path id="base-bg" class="cls-2" d="M46,17h76a12,12,0,0,1,12,12V136a18,18,0,0,1-18,18H52a18,18,0,0,1-18-18V29A12,12,0,0,1,46,17Z"/>
    <path id="mid-bg" class="cls-3" d="M910,578H892a18,18,0,0,0,18-18V506a18,18,0,0,1,36,0v72H910Z" transform="translate(-840 -424)"/>
    <path id="front-bg" class="cls-4" d="M1040,648H952a6,6,0,0,1-6-6V506a18,18,0,0,0-18-18h100a18,18,0,0,1,18,18V642A6,6,0,0,1,1040,648Z" transform="translate(-840 -424)"/>
    <path id="outline" class="cls-5" d="M1040,650h-6a2,2,0,0,1,0-4h6a4,4,0,0,0,4-4V506a16,16,0,0,0-16-16H939.964A19.949,19.949,0,0,1,948,506V642a4,4,0,0,0,4,4h66a2,2,0,0,1,0,4H952a8,8,0,0,1-8-8V580H892a20,20,0,0,1-20-20V447a8,8,0,0,1,8-8h7a2,2,0,0,1,0,4h-7a4,4,0,0,0-4,4V560a16,16,0,0,0,32,0v-2H889a2,2,0,0,1,0-4h19V538H889a2,2,0,0,1,0-4h19V518H889a2,2,0,0,1,0-4h19v-8a19.928,19.928,0,0,1,1.675-8H889a2,2,0,0,1,0-4h23a0.19,0.19,0,0,1,.025,0A19.947,19.947,0,0,1,928,486h44V447a4,4,0,0,0-4-4H909a2,2,0,0,1,0-4h59a8,8,0,0,1,8,8v39h52a20,20,0,0,1,20,20V642A8,8,0,0,1,1040,650ZM912,506v54a19.949,19.949,0,0,1-8.036,16H944V506A16,16,0,0,0,912,506Zm-11-63h-6a2,2,0,0,1,0-4h6A2,2,0,0,1,901,443Zm-12,31h58a2,2,0,0,1,0,4H889A2,2,0,0,1,889,474Zm0-20h68a2,2,0,0,1,0,4H889A2,2,0,0,1,889,454Zm137,192a2,2,0,1,1-2,2A2,2,0,0,1,1026,646Zm-9-85a4,4,0,1,1-4-4A4,4,0,0,1,1017,561Zm-11,16a2,2,0,0,1,0,4H990a2,2,0,0,1,0-4h16Zm-19-16a4,4,0,1,1-4-4A4,4,0,0,1,987,561Zm-25-27h10a2,2,0,0,1,0,4H962A2,2,0,0,1,962,534Zm-2-18a2,2,0,0,1,2-2h68a2,2,0,0,1,0,4H962A2,2,0,0,1,960,516Z" transform="translate(-840 -424)"/>
  </g>
  <g id="sparkles">
    <path id="green" class="cls-6" d="M1058.41,453.414h0l-20,20h0A2,2,0,0,1,1035,472a1.965,1.965,0,0,1,.59-1.414h0l20-20h0A2,2,0,0,1,1059,452,1.965,1.965,0,0,1,1058.41,453.414ZM1025,471a2,2,0,0,1-2-2V439a2,2,0,0,1,4,0v30A2,2,0,0,1,1025,471Zm-12,3a1.984,1.984,0,0,1-1.41-.586h0l-20-20h0a2,2,0,1,1,2.828-2.828h0l20,20h0A1.965,1.965,0,0,1,1015,472,2,2,0,0,1,1013,474ZM918,639a6,6,0,1,1-6,6A6,6,0,0,1,918,639ZM906,427a2,2,0,1,1-2,2A2,2,0,0,1,906,427Z" transform="translate(-840 -424)"/>
    <path id="blue" class="cls-7" d="M1069,571h-2v2a2,2,0,0,1-4,0v-2h-2a2,2,0,0,1,0-4h2v-2a2,2,0,0,1,4,0v2h2A2,2,0,0,1,1069,571ZM880,619h-2v2a2,2,0,0,1-4,0v-2h-2a2,2,0,0,1,0-4h2v-2a2,2,0,0,1,4,0v2h2A2,2,0,0,1,880,619Zm-32-97v-2h16v2H848Zm0-6h16v2H848v-2Zm0-4h16v2H848v-2Zm73,87a2,2,0,1,1-2,2A2,2,0,0,1,921,599Z" transform="translate(-840 -424)"/>
  </g>
</svg>
